<?xml version="1.0" encoding="UTF-8" standalone="no"?>
<!-- Created with Inkscape (http://www.inkscape.org/) -->

<svg
   width="522.73853mm"
   height="260.25mm"
   viewBox="0 0 522.73852 260.25"
   version="1.1"
   id="svg2139"
   inkscape:version="1.1.1 (3bf5ae0d25, 2021-09-20)"
   sodipodi:docname="laser_Zubehoerbox.svg"
   xmlns:inkscape="http://www.inkscape.org/namespaces/inkscape"
   xmlns:sodipodi="http://sodipodi.sourceforge.net/DTD/sodipodi-0.dtd"
   xmlns="http://www.w3.org/2000/svg"
   xmlns:svg="http://www.w3.org/2000/svg"
   xmlns:rdf="http://www.w3.org/1999/02/22-rdf-syntax-ns#"
   xmlns:cc="http://creativecommons.org/ns#"
   xmlns:dc="http://purl.org/dc/elements/1.1/">
  <defs
     id="defs2133" />
  <sodipodi:namedview
     id="base"
     pagecolor="#ffffff"
     bordercolor="#666666"
     borderopacity="1.0"
     inkscape:pageopacity="0.0"
     inkscape:pageshadow="2"
     inkscape:zoom="0.35"
     inkscape:cx="650"
     inkscape:cy="858.57142"
     inkscape:document-units="mm"
     inkscape:current-layer="layer1"
     showgrid="false"
     inkscape:window-width="1920"
     inkscape:window-height="1017"
     inkscape:window-x="-8"
     inkscape:window-y="-8"
     inkscape:window-maximized="1"
     fit-margin-top="0"
     fit-margin-left="0"
     fit-margin-right="0"
     fit-margin-bottom="0"
     inkscape:pagecheckerboard="0"
     inkscape:snap-global="false" />
  <metadata
     id="metadata2136">
    <rdf:RDF>
      <cc:Work
         rdf:about="">
        <dc:format>image/svg+xml</dc:format>
        <dc:type
           rdf:resource="http://purl.org/dc/dcmitype/StillImage" />
      </cc:Work>
    </rdf:RDF>
  </metadata>
  <g
     inkscape:label="Ebene 1"
     inkscape:groupmode="layer"
     id="layer1"
     transform="translate(248.50674,-48.931349)">
    <path
       inkscape:connector-curvature="0"
       id="path3501"
       d="m -244.38174,266.52718 v 7.5 h -4 v 9 h 4 v 9 h -4 v 9.00001 h 4 v 7.49999 h 13.5 v -4 h 9 v 4 h 9 v -4 h 9 v 4 h 9 v -4 h 9 v 4 h 9 v -4 h 9 v 4 h 9.0001 v -4 h 9 v 4 h 8.99999 v -4 h 9 v 4 h 9 v -4 h 9 v 4 h 9 v -4 h 9.000003 v 4 h 9 v -4 h 9 v 4 h 8.99997 v -4 h 9 v 4 h 9 v -4 h 8.99999 v 4 h 9.00001 v -4 h 8.99999 v 4 h 9.00002 v -4 h 8.9999801 v 4 h 9.00002 4.5 v -7.49999 h 3.9999999 v -9.00001 H 7.6183331 v -9 h 3.9999999 v -9 H 7.6183331 v -7.5 z"
       style="display:inline;fill:none;stroke:#ff0000;stroke-width:0.25;enable-background:new" />
    <path
       d="m -244.35674,223.0894 v 7.5 h -4 v 9 h 4 v 9 h -4 v 9 h 4 v 7.5 h 13.5 v -4 h 9 v 4 h 9 v -4 h 9 v 4 h 9 v -4 h 9 v 4 h 9 v -4 h 9 v 4 h 9.0001 v -4 h 9 v 4 h 8.99998 v -4 h 8.99991 v 4 h 9 v -4 h 9 v 4 h 9 v -4 h 9.000003 v 4 h 9 v -4 h 9 v 4 h 9 v -4 h 9 v 4 h 9 v -4 h 9.00001 v 4 h 8.99999 v -4 h 9.00001 v 4 h 8.99999 v -4 h 9.0000101 v 4 h 8.99999 4.50001 v -7.5 h 3.9999899 v -9 H 7.6432631 v -9 h 3.9999899 v -9 H 7.6432631 v -7.5 z"
       id="path3503"
       inkscape:connector-curvature="0"
       style="display:inline;fill:none;stroke:#ff0000;stroke-width:0.25;enable-background:new" />
    <path
       inkscape:connector-curvature="0"
       id="path3505"
       d="m -244.35644,180.15584 v 7.4998 h -4.0003 v 8.99996 h 4.0003 v 8.99996 h -4.0003 v 8.99996 h 4.0003 v 3.50007 h 13.5 8.9999 v 4.00026 h 9 v -4.00026 h 9 v 4.00026 h 8.9999 v -4.00026 h 9 v 4.00026 h 9 v -4.00026 h 8.9999 v 4.00026 h 9 v -4.00026 h 9.0005 v 4.00026 h 8.9999 v -4.00026 h 8.9995 v 4.00026 h 9.0005 v -4.00026 h 8.9999 v 4.00026 h 9 v -4.00026 h 9.000003 v 4.00026 h 9 v -4.00026 h 8.9999 v 4.00026 h 9 v -4.00026 h 8.9999 v 4.00026 h 9 v -4.00026 h 9.00001 v 4.00026 h 8.9999 v -4.00026 h 8.99999 v 4.00026 h 9.00002 v -4.00026 h 7.2496901 1.75029 13.49989 v -3.50007 h 4.0003199 v -8.99996 H 7.6431531 v -8.99996 h 4.0003199 v -8.99996 H 7.6431531 v -7.4998 z"
       style="display:inline;fill:none;stroke:#ff0000;stroke-width:0.25;enable-background:new" />
    <path
       inkscape:connector-curvature="0"
       id="path3507"
       d="m -248.38163,136.13885 v 7.5 h 3.99999 v 9 h -3.99999 v 9 h 3.99999 v 9 h -3.99999 v 7.5 h 17.49999 v -4 h 9 v 4 h 9 v -4 h 8.9999 v 4 h 9 v -4 h 9 v 4 h 9 v -4 h 9 v 4 h 9 v -4 h 9 v 4 h 9.00004 v -4 h 9 v 4 h 9 v -4 h 9 v 4 h 9 v -4 h 9.000003 v 4 h 9 v -4 h 9 v 4 h 9 v -4 h 9 v 4 h 9 v -4 h 9.00001 v 4 h 8.99999 v -4 h 9.00001 v 4 h 8.99999 v -4 h 9.0000101 v 4 h 8.99999 8.4999999 v -7.5 H 7.6183131 v -9 h 3.9999899 v -9 H 7.6183131 v -9 h 3.9999899 v -7.5 z"
       style="display:inline;fill:none;stroke:#ff0000;stroke-width:0.25;enable-background:new" />
    <path
       inkscape:connector-curvature="0"
       id="rect3509"
       d="m -83.360057,143.6389 h 4 v 9 h -4 z"
       style="fill:none;stroke:#ff0000;stroke-width:0.25" />
    <path
       inkscape:connector-curvature="0"
       id="rect3511"
       d="m -83.360057,161.63884 h 4 v 9 h -4 z"
       style="fill:none;stroke:#ff0000;stroke-width:0.25" />
    <path
       d="m -248.38163,92.146916 v 7.500001 h 3.99999 v 9.000043 h -3.99999 v 9 h 3.99999 v 9 h -3.99999 v 7.5 h 17.49999 v -4 h 9 v 4 h 9 v -4 h 8.9999 v 4 h 9 v -4 h 9 v 4 h 9 v -4 h 9 v 4 h 9 v -4 h 9 v 4 h 9.00004 v -4 h 9 v 4 h 9 v -4 h 9 v 4 h 9 v -4 h 9.000003 v 4 h 9 v -4 h 9 v 4 h 9 v -4 h 9 v 4 h 9 v -4 h 9.00001 v 4 h 8.99999 v -4 h 9.00001 v 4 h 8.99999 v -4 h 9.0000101 v 4 h 8.99999 8.4999999 v -7.5 H 7.6183131 v -9 h 3.9999899 v -9 H 7.6183131 v -9.000043 h 3.9999899 v -7.500001 z"
       id="path3517"
       inkscape:connector-curvature="0"
       style="display:inline;fill:none;stroke:#ff0000;stroke-width:0.25;enable-background:new" />
    <path
       inkscape:connector-curvature="0"
       id="rect3519"
       d="m -83.360057,99.646957 h 4 V 108.647 h -4 z"
       style="fill:none;stroke:#ff0000;stroke-width:0.25" />
    <path
       inkscape:connector-curvature="0"
       id="rect3521"
       d="m -83.360057,117.64694 h 4 v 9 h -4 z"
       style="fill:none;stroke:#ff0000;stroke-width:0.25" />
    <path
       inkscape:connector-curvature="0"
       id="path3537"
       d="m 18.106793,53.056349 v 13.499999 h -4 v 9.000001 h 4 v 9 h -4 v 9.000001 h 4 v 9 h -4 v 9 h 4 v 9 h -4 v 9 h 4 v 9 h -4 v 9 h 4 v 9 h -4 v 9 h 4 v 9 h -4 v 9 h 4 v 9 h -4 v 9 h 4 v 9 h -4 v 9 h 4 v 9 h -4 v 9 h 4 v 9 h -4 v 9 h 4 v 9 h -4 v 9 h 4 v 8.99999 h -4 v 9.00001 h 4 v 8.99999 4.50001 h 13.49999 v 4 h 9.00002 v -4 h 8.99998 v 4 h 9.00002 v -4 h 8.99998 v 4 h 9.00002 v -4 h 8.99998 v 4 h 9.00002 v -4 h 8.999987 v 4 h 9.00001 v -4 h 8.99999 v 4 h 9.00001 v -4 h 8.99999 v 4 h 9.00001 v -4 h 8.99999 v 4 h 9.00001 v -4 h 8.99999 v 4 h 9.00001 v -4 h 8.99999 v 4 h 9.00001 v -4 h 8.99999 v 4 h 9.00002 v -4 h 8.99998 v 4 h 9.00002 v -4 h 8.99998 v 4 h 9.00002 v -4 h 8.99999 4.5 v -13.5 h 4 v -9.00001 h -4 v -8.99999 h 4 v -9 h -4 v -9 h 4 v -9 h -4 v -9 h 4 v -9 h -4 v -9 h 4 v -9 h -4 v -9 h 4 v -9 h -4 v -9 h 4 v -9 h -4 v -9 h 4 v -9 h -4 v -9 h 4 v -9 h -4 v -9 h 4 v -9 h -4 v -9 h 4 v -9 h -4 v -9 h 4 v -9.000001 h -4 v -9 h 4 v -9.000001 h -4 V 57.55635 53.056349 h -13.49999 v -4 h -9.00002 v 4 h -8.99998 v -4 h -9.00002 v 4 h -8.99998 v -4 h -9.00002 v 4 h -8.99999 v -4 h -9.00001 v 4 h -8.99999 v -4 h -9.00001 v 4 h -8.99999 v -4 h -9.00001 v 4 h -8.99999 v -4 h -9.00001 v 4 h -8.99999 v -4 h -9.00001 v 4 h -8.99999 v -4 h -9.00001 v 4 h -8.999987 v -4 h -9.00002 v 4 h -8.99998 v -4 h -9.00002 v 4 h -8.99998 v -4 h -9.00002 v 4 h -8.99998 v -4 h -9.00002 v 4 h -8.99999 z"
       style="display:inline;fill:none;stroke:#ff0000;stroke-width:0.25;enable-background:new" />
    <path
       inkscape:connector-curvature="0"
       id="rect3539"
       d="m 40.550043,213.99921 h 9.00002 v 4.00026 h -9.00002 z"
       style="display:inline;fill:none;stroke:#ff0000;stroke-width:0.25;stroke-miterlimit:4;stroke-dasharray:none;stroke-opacity:1;enable-background:new" />
    <path
       inkscape:connector-curvature="0"
       id="rect3541"
       d="m 58.549833,213.99921 h 9.00002 v 4.00026 h -9.00002 z"
       style="display:inline;fill:none;stroke:#ff0000;stroke-width:0.25;stroke-miterlimit:4;stroke-dasharray:none;stroke-opacity:1;enable-background:new" />
    <path
       inkscape:connector-curvature="0"
       id="rect3543"
       d="m 76.549833,213.99921 h 9.00002 v 4.00026 h -9.00002 z"
       style="display:inline;fill:none;stroke:#ff0000;stroke-width:0.25;stroke-miterlimit:4;stroke-dasharray:none;stroke-opacity:1;enable-background:new" />
    <path
       inkscape:connector-curvature="0"
       id="rect3545"
       d="m 94.550343,213.99921 h 9.000007 v 4.00026 h -9.000007 z"
       style="display:inline;fill:none;stroke:#ff0000;stroke-width:0.25;stroke-miterlimit:4;stroke-dasharray:none;stroke-opacity:1;enable-background:new" />
    <path
       inkscape:connector-curvature="0"
       id="rect3547"
       d="m 112.55023,213.99921 h 9.00002 v 4.00026 h -9.00002 z"
       style="display:inline;fill:none;stroke:#ff0000;stroke-width:0.25;stroke-miterlimit:4;stroke-dasharray:none;stroke-opacity:1;enable-background:new" />
    <path
       inkscape:connector-curvature="0"
       id="rect3549"
       d="m 130.55023,213.99921 h 9.00002 v 4.00026 h -9.00002 z"
       style="display:inline;fill:none;stroke:#ff0000;stroke-width:0.25;stroke-miterlimit:4;stroke-dasharray:none;stroke-opacity:1;enable-background:new" />
    <path
       inkscape:connector-curvature="0"
       id="rect3551"
       d="m 148.54965,213.99921 h 8.99999 v 4.00026 h -8.99999 z"
       style="display:inline;fill:none;stroke:#ff0000;stroke-width:0.25;stroke-miterlimit:4;stroke-dasharray:none;stroke-opacity:1;enable-background:new" />
    <path
       inkscape:connector-curvature="0"
       id="rect3553"
       d="m 166.54955,213.99921 h 8.99998 v 4.00026 h -8.99998 z"
       style="display:inline;fill:none;stroke:#ff0000;stroke-width:0.25;stroke-miterlimit:4;stroke-dasharray:none;stroke-opacity:1;enable-background:new" />
    <path
       inkscape:connector-curvature="0"
       id="rect3555"
       d="m 184.54955,213.99921 h 8.99999 v 4.00026 h -8.99999 z"
       style="display:inline;fill:none;stroke:#ff0000;stroke-width:0.25;stroke-miterlimit:4;stroke-dasharray:none;stroke-opacity:1;enable-background:new" />
    <path
       inkscape:connector-curvature="0"
       id="rect3557"
       d="m 202.55005,213.99921 h 8.99999 v 4.00026 h -8.99999 z"
       style="display:inline;fill:none;stroke:#ff0000;stroke-width:0.25;stroke-miterlimit:4;stroke-dasharray:none;stroke-opacity:1;enable-background:new" />
    <path
       inkscape:connector-curvature="0"
       id="rect3559"
       d="m 220.54984,213.99921 h 9.00001 v 4.00026 h -9.00001 z"
       style="display:inline;fill:none;stroke:#ff0000;stroke-width:0.25;stroke-miterlimit:4;stroke-dasharray:none;stroke-opacity:1;enable-background:new" />
    <path
       inkscape:connector-curvature="0"
       id="rect3561"
       d="m 238.54984,213.99921 h 9.00002 v 4.00026 h -9.00002 z"
       style="display:inline;fill:none;stroke:#ff0000;stroke-width:0.25;stroke-miterlimit:4;stroke-dasharray:none;stroke-opacity:1;enable-background:new" />
    <path
       inkscape:connector-curvature="0"
       id="circle3521-9"
       d="m -127.17716,97.346918 a 1.2044765,1.2044765 0 0 1 -1.2045,1.20447 1.2044765,1.2044765 0 0 1 -1.2045,-1.20447 1.2044765,1.2044765 0 0 1 1.2045,-1.204481 1.2044765,1.2044765 0 0 1 1.2045,1.204481 z"
       style="fill:none;stroke:#ff0000;stroke-width:0.25" />
    <path
       inkscape:connector-curvature="0"
       id="circle3523-5"
       d="m -107.17716,97.346918 a 1.2044765,1.2044765 0 0 1 -1.2045,1.20447 1.2044765,1.2044765 0 0 1 -1.2045,-1.20447 1.2044765,1.2044765 0 0 1 1.2045,-1.204481 1.2044765,1.2044765 0 0 1 1.2045,1.204481 z"
       style="fill:none;stroke:#ff0000;stroke-width:0.25" />
    <path
       inkscape:connector-curvature="0"
       id="circle3548"
       d="m -127.17716,141.33886 a 1.2044765,1.2044765 0 0 1 -1.2045,1.20447 1.2044765,1.2044765 0 0 1 -1.2045,-1.20447 1.2044765,1.2044765 0 0 1 1.2045,-1.20448 1.2044765,1.2044765 0 0 1 1.2045,1.20448 z"
       style="fill:none;stroke:#ff0000;stroke-width:0.25" />
    <path
       inkscape:connector-curvature="0"
       id="circle3550"
       d="m -107.17716,141.33886 a 1.2044765,1.2044765 0 0 1 -1.2045,1.20447 1.2044765,1.2044765 0 0 1 -1.2045,-1.20447 1.2044765,1.2044765 0 0 1 1.2045,-1.20448 1.2044765,1.2044765 0 0 1 1.2045,1.20448 z"
       style="fill:none;stroke:#ff0000;stroke-width:0.25" />
    <path
       inkscape:connector-curvature="0"
       id="rect6120"
       d="m -164.44123,58.660574 v 22.73644 c 0,4.75498 -3.82801,8.583 -8.583,8.583 h -22.74493 c -4.75499,0 -8.58301,-3.82802 -8.58301,-8.583 v -22.73644 c 0,-4.75496 3.82802,-8.58298 8.58301,-8.58298 h 22.74493 c 4.75499,0 8.583,3.82802 8.583,8.58298 z"
       inkscape:transform-center-y="-1.0376561"
       inkscape:transform-center-x="113.59767"
       style="display:inline;fill:none;stroke:#ff0000;stroke-width:0.25;enable-background:new" />
    <path
       inkscape:connector-curvature="0"
       id="rect6120-2"
       d="m -120.82282,58.660574 v 22.73644 c 0,4.75498 -3.82801,8.583 -8.583,8.583 h -22.74493 c -4.75499,0 -8.58301,-3.82802 -8.58301,-8.583 v -22.73644 c 0,-4.75496 3.82802,-8.58298 8.58301,-8.58298 h 22.74493 c 4.75499,0 8.583,3.82802 8.583,8.58298 z"
       inkscape:transform-center-y="-1.0376561"
       inkscape:transform-center-x="113.59767"
       style="display:inline;fill:none;stroke:#ff0000;stroke-width:0.25;enable-background:new" />
    <path
       inkscape:connector-curvature="0"
       id="rect6120-7"
       d="m -77.204437,58.660574 v 22.73644 c 0,4.75498 -3.82801,8.583 -8.583,8.583 h -22.744923 c -4.755,0 -8.58302,-3.82802 -8.58302,-8.583 v -22.73644 c 0,-4.75496 3.82802,-8.58298 8.58302,-8.58298 h 22.744923 c 4.75499,0 8.583,3.82802 8.583,8.58298 z"
       inkscape:transform-center-y="-1.0376561"
       inkscape:transform-center-x="113.59767"
       style="display:inline;fill:none;stroke:#ff0000;stroke-width:0.25;enable-background:new" />
    <path
       inkscape:connector-curvature="0"
       id="rect6120-3"
       d="m -33.586072,58.660574 v 22.73644 c 0,4.75498 -3.82801,8.583 -8.583,8.583 h -22.74493 c -4.75499,0 -8.58301,-3.82802 -8.58301,-8.583 v -22.73644 c 0,-4.75496 3.82802,-8.58298 8.58301,-8.58298 h 22.74493 c 4.75499,0 8.583,3.82802 8.583,8.58298 z"
       inkscape:transform-center-y="-1.0376561"
       inkscape:transform-center-x="113.59767"
       style="display:inline;fill:none;stroke:#ff0000;stroke-width:0.25;enable-background:new" />
    <path
       inkscape:connector-curvature="0"
       id="rect6120-32"
       d="m 10.032324,58.660574 v 22.73644 c 0,4.75498 -3.8280104,8.583 -8.5830004,8.583 H -21.295607 c -4.75499,0 -8.58301,-3.82802 -8.58301,-8.583 v -22.73644 c 0,-4.75496 3.82802,-8.58298 8.58301,-8.58298 H 1.4493236 c 4.75499,0 8.5830004,3.82802 8.5830004,8.58298 z"
       inkscape:transform-center-y="-1.0376561"
       inkscape:transform-center-x="113.59767"
       style="display:inline;fill:none;stroke:#ff0000;stroke-width:0.25;enable-background:new" />
    <path
       inkscape:connector-curvature="0"
       id="rect6120-9"
       d="m -208.05961,58.660574 v 22.73644 c 0,4.75498 -3.82801,8.583 -8.583,8.583 h -22.74493 c -4.75499,0 -8.58301,-3.82802 -8.58301,-8.583 v -22.73644 c 0,-4.75496 3.82802,-8.58298 8.58301,-8.58298 h 22.74493 c 4.75499,0 8.583,3.82802 8.583,8.58298 z"
       inkscape:transform-center-y="-1.0376561"
       inkscape:transform-center-x="113.59767"
       style="display:inline;fill:none;stroke:#ff0000;stroke-width:0.25;enable-background:new" />
  </g>
</svg>
