<?xml version="1.0" encoding="UTF-8" standalone="no"?>
<svg
   xmlns:dc="http://purl.org/dc/elements/1.1/"
   xmlns:cc="http://creativecommons.org/ns#"
   xmlns:rdf="http://www.w3.org/1999/02/22-rdf-syntax-ns#"
   xmlns:svg="http://www.w3.org/2000/svg"
   xmlns="http://www.w3.org/2000/svg"
   xmlns:sodipodi="http://sodipodi.sourceforge.net/DTD/sodipodi-0.dtd"
   xmlns:inkscape="http://www.inkscape.org/namespaces/inkscape"
   width="210mm"
   height="297mm"
   viewBox="0 0 210 297"
   version="1.1"
   id="svg8"
   inkscape:version="0.92.5 (2060ec1f9f, 2020-04-08)"
   sodipodi:docname="vinyl_stickers.svg">
  <defs
     id="defs2" />
  <sodipodi:namedview
     id="base"
     pagecolor="#ffffff"
     bordercolor="#666666"
     borderopacity="1.0"
     inkscape:pageopacity="0.0"
     inkscape:pageshadow="2"
     inkscape:zoom="1.979899"
     inkscape:cx="308.22335"
     inkscape:cy="910.53559"
     inkscape:document-units="mm"
     inkscape:current-layer="layer1"
     showgrid="false"
     inkscape:window-width="1920"
     inkscape:window-height="1017"
     inkscape:window-x="1358"
     inkscape:window-y="-8"
     inkscape:window-maximized="1"
     inkscape:document-rotation="0" />
  <metadata
     id="metadata5">
    <rdf:RDF>
      <cc:Work
         rdf:about="">
        <dc:format>image/svg+xml</dc:format>
        <dc:type
           rdf:resource="http://purl.org/dc/dcmitype/StillImage" />
        <dc:title />
      </cc:Work>
    </rdf:RDF>
  </metadata>
  <g
     inkscape:label="Ebene 1"
     inkscape:groupmode="layer"
     id="layer1">
    <g
       id="g18404"
       transform="translate(0,0.02815247)"
       inkscape:export-xdpi="267.72787"
       inkscape:export-ydpi="267.72787">
      <circle
         r="11.5"
         cy="26.368767"
         cx="25.404446"
         id="path874"
         style="fill:#000000;fill-opacity:1;stroke:none;stroke-width:0.40000001;stroke-linecap:round;stroke-linejoin:round" />
      <text
         transform="scale(1.0058824,0.994152)"
         id="text872"
         y="29.623646"
         x="15.571625"
         style="font-size:9.7258997px;line-height:1.25;font-family:Tahoma;-inkscape-font-specification:'Tahoma, Normal';letter-spacing:0px;word-spacing:0px;fill:#ffffff;stroke:none;stroke-width:0.26458299"
         xml:space="preserve"><tspan
           style="font-style:normal;font-variant:normal;font-weight:normal;font-stretch:normal;font-family:'Tw Cen MT Condensed Extra Bold';-inkscape-font-specification:'Tw Cen MT Condensed Extra Bold, ';fill:#ffffff;stroke:none;stroke-width:0.26458299"
           y="29.623646"
           x="15.571625"
           id="tspan870"
           sodipodi:role="line">ENDE</tspan></text>
    </g>
    <g
       id="g18409"
       transform="translate(-4.5554797,0.02815247)"
       inkscape:export-xdpi="267.72787"
       inkscape:export-ydpi="267.72787">
      <circle
         r="11.5"
         cy="26.368767"
         cx="54.225128"
         id="circle876"
         style="fill:#000000;fill-opacity:1;stroke:none;stroke-width:0.40000001;stroke-linecap:round;stroke-linejoin:round" />
      <text
         transform="scale(1.0058824,0.994152)"
         id="text890"
         y="29.623646"
         x="49.672367"
         style="font-size:9.7258997px;line-height:1.25;font-family:Tahoma;-inkscape-font-specification:'Tahoma, Normal';letter-spacing:0px;word-spacing:0px;fill:#ffffff;stroke:none;stroke-width:0.26458299"
         xml:space="preserve"><tspan
           style="font-style:normal;font-variant:normal;font-weight:normal;font-stretch:normal;font-family:'Tw Cen MT Condensed Extra Bold';-inkscape-font-specification:'Tw Cen MT Condensed Extra Bold, ';fill:#ffffff;stroke:none;stroke-width:0.26458299"
           y="29.623646"
           x="49.672367"
           id="tspan888"
           sodipodi:role="line">JA</tspan></text>
    </g>
    <g
       id="g18414"
       transform="translate(-6.7486135,0.02815247)"
       inkscape:export-xdpi="267.72787"
       inkscape:export-ydpi="267.72787">
      <circle
         r="11.5"
         cy="26.368767"
         cx="80.683456"
         id="circle882"
         style="fill:#000000;fill-opacity:1;stroke:none;stroke-width:0.40000001;stroke-linecap:round;stroke-linejoin:round" />
      <text
         transform="scale(1.0058824,0.994152)"
         id="text894"
         y="29.623646"
         x="70.997078"
         style="font-size:9.7258997px;line-height:1.25;font-family:Tahoma;-inkscape-font-specification:'Tahoma, Normal';letter-spacing:0px;word-spacing:0px;fill:#ffffff;stroke:none;stroke-width:0.26458299"
         xml:space="preserve"><tspan
           style="font-style:normal;font-variant:normal;font-weight:normal;font-stretch:normal;font-family:'Tw Cen MT Condensed Extra Bold';-inkscape-font-specification:'Tw Cen MT Condensed Extra Bold, ';fill:#ffffff;stroke:none;stroke-width:0.26458299"
           y="29.623646"
           x="70.997078"
           id="tspan892"
           sodipodi:role="line">NEIN</tspan></text>
    </g>
    <g
       id="g18419"
       transform="translate(-9.4776362,0.02815247)"
       inkscape:export-xdpi="267.72787"
       inkscape:export-ydpi="267.72787">
      <circle
         r="11.5"
         cy="26.368767"
         cx="107.67768"
         id="circle896"
         style="fill:#000000;fill-opacity:1;stroke:none;stroke-width:0.40000001;stroke-linecap:round;stroke-linejoin:round" />
      <text
         transform="scale(1.0058824,0.99415199)"
         id="text900"
         y="31.933905"
         x="103.19177"
         style="font-size:16.5739994px;line-height:1.25;font-family:Tahoma;-inkscape-font-specification:'Tahoma, Normal';letter-spacing:0px;word-spacing:0px;fill:#ffffff;stroke:none;stroke-width:0.26458299"
         xml:space="preserve"><tspan
           style="font-style:normal;font-variant:normal;font-weight:normal;font-stretch:normal;font-family:'Tw Cen MT Condensed Extra Bold';-inkscape-font-specification:'Tw Cen MT Condensed Extra Bold, ';fill:#ffffff;stroke:none;stroke-width:0.26458299"
           y="31.933905"
           x="103.19177"
           id="tspan898"
           sodipodi:role="line">?</tspan></text>
    </g>
    <g
       id="g18429"
       transform="translate(-111.31776,29.629265)"
       inkscape:export-xdpi="267.72787"
       inkscape:export-ydpi="267.72787">
      <circle
         style="fill:#000000;fill-opacity:1;stroke:none;stroke-width:0.40000001;stroke-linecap:round;stroke-linejoin:round"
         id="circle18253"
         cx="134.22227"
         cy="25.900032"
         r="11.5" />
      <g
         transform="matrix(0.9802665,0,0,0.9802665,118.38726,-38.232445)"
         id="g18315">
        <rect
           style="fill:#ffffff;stroke:none;stroke-width:0.74997258;stroke-miterlimit:4;stroke-dasharray:none;stroke-opacity:1"
           id="rect18288"
           width="1.9711127"
           height="1.9377041"
           x="9.9558945"
           y="59.297161"
           ry="0" />
        <path
           style="fill:#ffffff;stroke:none;stroke-width:1.08285904;stroke-miterlimit:4;stroke-dasharray:none;stroke-opacity:1"
           d="m 8.886796,62.43753 v 1.937867 h 1.0857217 v 7.216098 h 1.9378663 v -7.216098 h 1.085722 V 62.43753 Z"
           id="rect18290"
           inkscape:connector-curvature="0" />
        <path
           style="fill:#ffffff;stroke:none;stroke-width:1.08285904;stroke-miterlimit:4;stroke-dasharray:none;stroke-opacity:1"
           d="m 14.031701,66.54684 v 1.937867 h 1.085722 v 3.106788 h 1.937867 v -3.106788 h 1.085721 V 66.54684 Z"
           id="rect18294"
           inkscape:connector-curvature="0" />
        <path
           inkscape:connector-curvature="0"
           style="fill:#ffffff;stroke:none;stroke-width:4.09269571;stroke-miterlimit:4;stroke-dasharray:none;stroke-opacity:1"
           d="m 72.351562,243.8125 v 7.32422 h 4.103516 v 19.44531 h 7.324219 v -19.44531 h 4.103515 v -7.32422 z"
           transform="scale(0.26458333)"
           id="rect18298" />
        <rect
           style="fill:#ffffff;stroke:none;stroke-width:1.07844818;stroke-miterlimit:4;stroke-dasharray:none;stroke-opacity:1"
           id="rect18302"
           width="1.9377041"
           height="4.0758605"
           x="20.228821"
           y="59.297161"
           ry="0" />
        <rect
           ry="0"
           y="59.297161"
           x="15.117504"
           height="6.1471992"
           width="1.9377041"
           id="rect18304"
           style="fill:#ffffff;stroke:none;stroke-width:1.32442772;stroke-miterlimit:4;stroke-dasharray:none;stroke-opacity:1" />
      </g>
    </g>
    <g
       id="g18444"
       transform="translate(-114.79226,28.234586)"
       inkscape:export-xdpi="267.72787"
       inkscape:export-ydpi="267.72787">
      <circle
         style="fill:#000000;fill-opacity:1;stroke:none;stroke-width:0.40000001;stroke-linecap:round;stroke-linejoin:round"
         id="circle18247"
         cx="164.30647"
         cy="26.893806"
         r="11.5" />
      <g
         transform="matrix(1.1821816,0,0,1.1821816,1.3195072,-3.6896394)"
         id="g18399">
        <ellipse
           style="opacity:1;fill:#ffffff;fill-opacity:1;fill-rule:nonzero;stroke:none;stroke-width:0.07799286;stroke-linecap:round;stroke-linejoin:round;stroke-miterlimit:4;stroke-dasharray:none;stroke-dashoffset:0;stroke-opacity:1"
           id="path2313"
           cx="136.12993"
           cy="30.218332"
           rx="1.0036609"
           ry="1.0038754" />
        <g
           id="g2342"
           inkscape:transform-center-x="-12.295965"
           inkscape:transform-center-y="-23.891395"
           transform="matrix(0.29627186,-0.09763433,0.09761347,0.29633517,-538.6925,831.03395)"
           style="fill:#ffffff">
          <g
             inkscape:export-ydpi="458.53406"
             inkscape:export-xdpi="458.53406"
             inkscape:export-filename="C:\Users\klmnsfrck\Desktop\temp\hoorchflyer\lautsprecher.png"
             id="g2319"
             transform="matrix(0.09579396,-0.11069422,-0.11069422,-0.09579396,2857.0138,-1703.276)"
             style="fill:#ffffff">
            <g
               id="g2317"
               style="fill:#ffffff">
              <path
                 id="path2315"
                 d="m 375.505,200.174 c -4.59,-6.877 -13.884,-8.731 -20.76,-4.141 -6.877,4.59 -8.731,13.884 -4.141,20.76 15.488,23.208 15.482,53.214 -0.016,76.444 -4.589,6.877 -2.732,16.172 4.144,20.76 6.879,4.59 16.173,2.732 20.76,-4.144 22.233,-33.326 22.238,-76.377 0.013,-109.679 z"
                 inkscape:connector-curvature="0"
                 style="fill:#ffffff" />
            </g>
          </g>
          <g
             inkscape:export-ydpi="458.53406"
             inkscape:export-xdpi="458.53406"
             inkscape:export-filename="C:\Users\klmnsfrck\Desktop\temp\hoorchflyer\lautsprecher.png"
             id="g2325"
             transform="matrix(0.09579396,-0.11069422,-0.11069422,-0.09579396,2857.0138,-1703.276)"
             style="fill:#ffffff">
            <g
               id="g2323"
               style="fill:#ffffff">
              <path
                 id="path2321"
                 d="m 475.166,133.758 -6.71,-10.072 c -4.584,-6.881 -13.876,-8.742 -20.757,-4.158 -6.881,4.584 -8.742,13.877 -4.158,20.757 l 6.714,10.078 c 42.393,63.562 42.387,145.718 -0.017,209.303 l -6.695,10.042 c -4.586,6.879 -2.726,16.173 4.152,20.758 6.878,4.585 16.172,2.727 20.758,-4.152 l 6.694,-10.041 c 49.132,-73.672 49.137,-168.868 0.019,-242.515 z"
                 inkscape:connector-curvature="0"
                 style="fill:#ffffff" />
            </g>
          </g>
          <g
             inkscape:export-ydpi="458.53406"
             inkscape:export-xdpi="458.53406"
             inkscape:export-filename="C:\Users\klmnsfrck\Desktop\temp\hoorchflyer\lautsprecher.png"
             id="g2331"
             transform="matrix(0.09579396,-0.11069422,-0.11069422,-0.09579396,2857.0138,-1703.276)"
             style="fill:#ffffff">
            <g
               id="g2329"
               style="fill:#ffffff">
              <path
                 id="path2327"
                 d="m 425.335,166.956 -6.717,-10.075 c -4.586,-6.879 -13.88,-8.737 -20.758,-4.151 -6.879,4.586 -8.737,13.879 -4.151,20.758 l 6.716,10.075 c 28.93,43.396 28.93,99.476 0,142.873 l -6.717,10.075 c -4.587,6.879 -2.727,16.173 4.151,20.758 6.88,4.587 16.174,2.726 20.758,-4.151 l 6.717,-10.075 c 35.658,-53.485 35.658,-122.603 10e-4,-176.087 z"
                 inkscape:connector-curvature="0"
                 style="fill:#ffffff" />
            </g>
          </g>
        </g>
      </g>
    </g>
    <g
       id="g903"
       transform="translate(-1.6913957,-25.70882)"
       inkscape:export-xdpi="267"
       inkscape:export-ydpi="267">
      <circle
         r="11.5"
         cy="52.10574"
         cx="124.15665"
         id="circle859"
         style="fill:#000000;fill-opacity:1;stroke:none;stroke-width:0.40000001;stroke-linecap:round;stroke-linejoin:round" />
      <g
         style="fill:#ffffff;stroke:none"
         id="g4"
         transform="matrix(0.02792798,0,0,0.02792798,117.32808,45.277154)">
        <path
           style="fill:#ffffff;stroke:none"
           id="path2"
           d="M 483.97,105.709 C 481.479,95.751 469.067,92.285 461.813,99.544 L 402.9,158.458 c -13.083,13.077 -34.291,13.077 -47.372,0 l -27.03,-27.031 c -13.082,-13.081 -13.082,-34.289 0,-47.372 L 386.694,25.858 C 394.001,18.551 390.445,6.02 380.388,3.665 366.616,0.447 352.061,-0.741 337.049,0.457 272.527,5.605 213.142,66.106 209.126,130.711 c -1.521,24.503 3.43,47.667 13.077,68.186 L 16.253,375.878 c -9.263,7.96 -14.81,19.401 -15.323,31.602 -0.519,12.201 4.042,24.068 12.599,32.78 l 34.902,35.541 c 8.64,8.802 20.57,13.586 32.899,13.19 12.33,-0.399 23.928,-5.936 31.986,-15.271 L 291.704,267.036 c 19.917,8.889 42.21,13.424 65.747,11.956 65.041,-4.058 125.554,-63.92 130.29,-128.91 1.122,-15.396 -0.259,-30.305 -3.771,-44.373 z"
           inkscape:connector-curvature="0" />
      </g>
    </g>
  </g>
</svg>
