<?xml version="1.0" encoding="UTF-8" standalone="no"?>
<svg
   xmlns:dc="http://purl.org/dc/elements/1.1/"
   xmlns:cc="http://creativecommons.org/ns#"
   xmlns:rdf="http://www.w3.org/1999/02/22-rdf-syntax-ns#"
   xmlns:svg="http://www.w3.org/2000/svg"
   xmlns="http://www.w3.org/2000/svg"
   xmlns:sodipodi="http://sodipodi.sourceforge.net/DTD/sodipodi-0.dtd"
   xmlns:inkscape="http://www.inkscape.org/namespaces/inkscape"
   version="1.1"
   width="29.7002cm"
   height="21.0007cm"
   viewBox="0 0 116930 82680 "
   id="svg2531"
   sodipodi:docname="amplifier-B_Cu.svg"
   inkscape:version="0.92.4 (5da689c313, 2019-01-14)">
  <metadata
     id="metadata2537">
    <rdf:RDF>
      <cc:Work
         rdf:about="">
        <dc:format>image/svg+xml</dc:format>
        <dc:type
           rdf:resource="http://purl.org/dc/dcmitype/StillImage" />
      </cc:Work>
    </rdf:RDF>
  </metadata>
  <defs
     id="defs2535" />
  <sodipodi:namedview
     pagecolor="#ffffff"
     bordercolor="#666666"
     borderopacity="1"
     objecttolerance="10"
     gridtolerance="10"
     guidetolerance="10"
     inkscape:pageopacity="0"
     inkscape:pageshadow="2"
     inkscape:window-width="1360"
     inkscape:window-height="705"
     id="namedview2533"
     showgrid="false"
     inkscape:zoom="4.7573017"
     inkscape:cx="436.62872"
     inkscape:cy="414.4069"
     inkscape:window-x="-8"
     inkscape:window-y="-8"
     inkscape:window-maximized="1"
     inkscape:current-layer="svg2531" />
  <title
     id="title1451">SVG Picture created as amplifier-B_Cu.svg date 2019/11/21 12:48:14 </title>
  <desc
     id="desc1453">Picture generated by PCBNEW </desc>
  <path
     style="color:#000000;font-style:normal;font-variant:normal;font-weight:normal;font-stretch:normal;font-size:medium;line-height:normal;font-family:sans-serif;font-variant-ligatures:normal;font-variant-position:normal;font-variant-caps:normal;font-variant-numeric:normal;font-variant-alternates:normal;font-feature-settings:normal;text-indent:0;text-align:start;text-decoration:none;text-decoration-line:none;text-decoration-style:solid;text-decoration-color:#000000;letter-spacing:normal;word-spacing:normal;text-transform:none;writing-mode:lr-tb;direction:ltr;text-orientation:mixed;dominant-baseline:auto;baseline-shift:baseline;text-anchor:start;white-space:normal;shape-padding:0;clip-rule:nonzero;display:inline;overflow:visible;visibility:visible;opacity:1;isolation:auto;mix-blend-mode:normal;color-interpolation:sRGB;color-interpolation-filters:linearRGB;solid-color:#000000;solid-opacity:1;vector-effect:none;fill:none;fill-opacity:1;fill-rule:nonzero;stroke:#000484;stroke-width:0.37795278;stroke-linecap:round;stroke-linejoin:round;stroke-miterlimit:4;stroke-dasharray:none;stroke-dashoffset:0;stroke-opacity:1;color-rendering:auto;image-rendering:auto;shape-rendering:auto;text-rendering:auto;enable-background:accumulate"
     d="M 377.17383 305.68359 C 377.08953 305.68446 377.00532 305.69063 376.92188 305.70312 L 347.86719 305.70312 C 347.76498 305.68883 347.66176 305.68295 347.55859 305.68555 C 347.33243 305.69355 347.10949 305.74156 346.90039 305.82812 C 346.88009 305.83512 346.85994 305.84346 346.83984 305.85156 C 346.83084 305.85556 346.8215 305.85958 346.8125 305.86328 C 346.51595 305.99306 346.2577 306.19684 346.0625 306.45508 L 345.71484 306.80273 C 345.45277 307.00231 345.24743 307.2669 345.11914 307.57031 C 344.97159 307.89473 344.91878 308.25427 344.9668 308.60742 L 344.9668 331.95508 C 344.85806 332.79607 345.32278 333.60654 346.10352 333.9375 C 346.11772 333.9445 346.13208 333.95073 346.14648 333.95703 C 346.14848 333.9577 346.15034 333.95798 346.15234 333.95898 C 346.94526 334.27765 347.85334 334.02458 348.36719 333.3418 L 350.9375 330.77734 C 350.79742 331.4147 350.996 332.07921 351.46289 332.53516 L 353.67188 334.74609 C 353.87471 335.0115 354.1443 335.21839 354.45312 335.3457 C 354.77363 335.48768 355.1273 335.53773 355.47461 335.49023 L 364.80273 335.49023 C 365.38468 336.2165 366.26863 336.63434 367.19922 336.62305 C 368.13117 336.63555 369.01681 336.21759 369.59961 335.49023 L 371.21875 335.49023 L 374.91016 339.18359 L 374.91016 349.61523 L 373.61523 350.91016 L 369.59766 350.91016 C 369.01568 350.18262 368.13082 349.76397 367.19922 349.77539 C 365.89762 349.75739 364.73121 350.57356 364.30273 351.80273 C 363.87425 353.03192 364.27983 354.39829 365.31055 355.19336 L 365.31055 362.12305 C 365.26485 362.45453 365.30755 362.79221 365.43555 363.10156 C 365.56125 363.42908 365.77563 363.71514 366.05469 363.92773 L 368.07031 365.94336 C 368.26569 366.19919 368.52318 366.40088 368.81836 366.5293 C 369.14783 366.68322 369.51471 366.73884 369.875 366.68945 L 392.81641 366.68945 L 396.50977 370.38281 L 396.50977 371.77344 C 395.35998 372.58472 394.87113 374.04994 395.30469 375.38867 C 395.73824 376.72741 396.9933 377.6281 398.40039 377.61133 C 399.80712 377.62723 401.0611 376.72523 401.49414 375.38672 C 401.92717 374.04821 401.43854 372.58452 400.28906 371.77344 L 400.28906 369.87891 C 400.33766 369.53341 400.28963 369.18122 400.15039 368.86133 C 400.14639 368.85233 400.14237 368.84308 400.13867 368.83398 C 400.13567 368.82798 400.13291 368.82231 400.12891 368.81641 C 400.00047 368.52287 399.79951 368.2668 399.54492 368.07227 L 395.12891 363.65625 C 394.92933 363.39419 394.66473 363.18883 394.36133 363.06055 C 394.33623 363.04895 394.31086 363.03784 394.28516 363.02734 C 394.28216 363.02667 394.28034 363.02639 394.27734 363.02539 C 394.05553 362.93679 393.81893 362.89109 393.58008 362.89062 C 393.49448 362.8913 393.40897 362.89766 393.32422 362.91016 L 370.38281 362.91016 L 369.08984 361.61719 L 369.08984 355.18945 C 369.2796 355.04362 369.45138 354.87578 369.60156 354.68945 L 374.12109 354.68945 C 374.46659 354.73805 374.81878 354.69003 375.13867 354.55078 C 375.14767 354.54678 375.15692 354.54276 375.16602 354.53906 C 375.17302 354.53506 375.1803 354.53104 375.1875 354.52734 C 375.4794 354.3989 375.73404 354.19867 375.92773 353.94531 L 377.94531 351.92578 C 378.20515 351.72734 378.40905 351.46489 378.53711 351.16406 C 378.68429 350.84023 378.7371 350.48142 378.68945 350.12891 L 378.68945 338.67773 C 378.73765 338.33288 378.68965 337.98141 378.55078 337.66211 C 378.55011 337.66111 378.54983 337.6592 378.54883 337.6582 C 378.53983 337.6385 378.53098 337.61901 378.52148 337.59961 C 378.39357 337.31448 378.19695 337.06551 377.94922 336.875 L 373.52539 332.45312 C 373.32308 332.18801 373.05422 331.98113 372.74609 331.85352 C 372.72609 331.84452 372.70585 331.83622 372.68555 331.82812 C 372.68255 331.82746 372.68073 331.82717 372.67773 331.82617 C 372.45592 331.73757 372.21932 331.69187 371.98047 331.69141 C 371.89487 331.69208 371.80936 331.69844 371.72461 331.71094 L 369.59766 331.71094 C 369.01568 330.98339 368.13082 330.56475 367.19922 330.57617 C 366.26625 330.56357 365.37969 330.98231 364.79688 331.71094 L 355.98242 331.71094 L 354.13672 329.86328 C 353.78027 329.49678 353.29054 329.29032 352.7793 329.29102 C 352.64599 329.2913 352.51309 329.30568 352.38281 329.33398 L 352.90625 328.81055 C 354.57422 328.80955 355.92576 327.56283 355.92578 326.02539 C 355.92576 324.48725 354.57303 323.24033 352.9043 323.24023 C 351.23556 323.24032 349.88283 324.48725 349.88281 326.02539 C 349.88381 326.16738 349.89708 326.30907 349.92188 326.44922 L 349.80859 326.5625 L 349.80664 326.5625 L 348.74805 327.62109 L 348.74805 309.48242 L 376.41016 309.48242 L 380.07031 313.14258 C 380.2732 313.40969 380.54351 313.61799 380.85352 313.74609 C 380.87162 313.75409 380.8898 313.76203 380.9082 313.76953 C 380.9132 313.77053 380.91718 313.77244 380.92188 313.77344 C 381.22674 313.8946 381.55793 313.93431 381.88281 313.88867 L 385.58398 313.88867 L 385.58398 315.20703 L 386.91016 315.20703 L 386.91016 316.5293 C 386.86526 316.86322 386.91045 317.20307 387.04102 317.51367 C 387.04602 317.52737 387.05124 317.54109 387.05664 317.55469 C 387.06064 317.56469 387.06561 317.57428 387.07031 317.58398 C 387.1993 317.87774 387.40094 318.13384 387.65625 318.32812 L 388.32812 319 C 388.53073 319.26612 388.80031 319.4737 389.10938 319.60156 C 389.42987 319.74354 389.78355 319.79358 390.13086 319.74609 L 405.875 319.74609 L 408.50977 322.38281 L 408.50977 338.12891 C 408.46517 338.45847 408.50777 338.794 408.63477 339.10156 C 408.64377 339.12326 408.65261 339.14462 408.66211 339.16602 L 408.66211 339.16797 L 408.66406 339.16992 C 408.79216 339.4691 408.99532 339.73013 409.25391 339.92773 L 413.66992 344.3418 C 413.86759 344.60208 414.12935 344.80665 414.42969 344.93555 C 414.75625 345.08524 415.11872 345.13877 415.47461 345.08984 L 429.32031 345.08984 C 429.64826 345.13504 429.98232 345.09284 430.28906 344.96875 C 430.62538 344.84247 430.91874 344.62297 431.13477 344.33594 L 433.14453 342.32812 C 433.41092 342.125 433.61853 341.85469 433.74609 341.54492 C 433.75509 341.52492 433.76338 341.50467 433.77148 341.48438 C 433.77216 341.48138 433.77244 341.47956 433.77344 341.47656 C 433.89291 341.17467 433.9326 340.84708 433.88867 340.52539 L 433.88867 336.72656 L 442.74219 327.87109 C 443.0093 327.66821 443.2176 327.39789 443.3457 327.08789 C 443.3547 327.06789 443.36299 327.04774 443.37109 327.02734 C 443.37177 327.02434 443.37205 327.02253 443.37305 327.01953 C 443.49117 326.72139 443.53151 326.3981 443.49023 326.08008 L 443.49023 316.5625 L 454.4707 327.54297 C 454.67028 327.80503 454.93488 328.01039 455.23828 328.13867 C 455.26148 328.14957 455.28499 328.16002 455.30859 328.16992 C 455.31359 328.17092 455.31757 328.17283 455.32227 328.17383 C 455.62655 328.29465 455.957 328.33436 456.28125 328.28906 L 468 328.28906 C 468.5824 329.01715 469.46811 329.43586 470.40039 329.42383 C 470.51192 329.42479 470.62342 329.4198 470.73438 329.4082 L 478.10938 336.78125 L 478.10938 371.21875 L 476.81641 372.50977 L 444.80664 372.50977 L 444.80664 371.18359 L 438.38281 371.18359 L 438.38281 377.60547 L 444.80664 377.60547 L 444.80664 376.28906 L 477.32031 376.28906 C 477.66581 376.33766 478.018 376.28963 478.33789 376.15039 C 478.34689 376.14639 478.35623 376.14237 478.36523 376.13867 C 478.37123 376.13567 478.37691 376.13291 478.38281 376.12891 C 478.67728 376.0002 478.93407 375.79854 479.12891 375.54297 L 481.14453 373.52734 C 481.41065 373.32475 481.61823 373.05515 481.74609 372.74609 C 481.75509 372.72609 481.76338 372.70585 481.77148 372.68555 C 481.77216 372.68255 481.77244 372.68073 481.77344 372.67773 C 481.89325 372.37525 481.93294 372.04694 481.88867 371.72461 L 481.88867 336.2793 C 481.94047 335.91142 481.88267 335.53642 481.72266 335.20117 C 481.59336 334.91305 481.39393 334.66191 481.14258 334.4707 L 473.43945 326.76758 C 473.54532 325.90156 473.27178 325.0325 472.68945 324.38281 C 472.10714 323.73312 471.27279 323.36613 470.40039 323.37695 C 469.46776 323.36385 468.58127 323.78187 467.99805 324.50977 L 456.78125 324.50977 L 444.81055 312.53906 C 444.97069 311.59856 444.70431 310.63499 444.08398 309.91016 C 443.46366 309.18532 442.55356 308.77416 441.59961 308.78711 C 440.19252 308.77031 438.93747 309.67104 438.50391 311.00977 C 438.07035 312.3485 438.55921 313.81371 439.70898 314.625 L 439.70898 325.56055 L 430.86133 334.4082 C 430.60381 334.60364 430.40072 334.86187 430.27148 335.1582 C 430.11651 335.48806 430.06021 335.85568 430.10938 336.2168 L 430.10938 340.01758 L 428.81641 341.31055 L 415.98242 341.31055 L 412.28906 337.61523 L 412.28906 321.87891 C 412.33766 321.53341 412.28963 321.18122 412.15039 320.86133 C 412.14639 320.85233 412.14237 320.84308 412.13867 320.83398 C 412.13467 320.82698 412.13065 320.8197 412.12695 320.8125 C 411.99851 320.5206 411.79828 320.26596 411.54492 320.07227 L 408.18359 316.71094 C 407.971 316.43188 407.68494 316.2175 407.35742 316.0918 C 407.35242 316.0888 407.347 316.08698 407.3418 316.08398 C 407.3358 316.08198 407.33012 316.08012 407.32422 316.07812 C 407.10519 315.99213 406.87203 315.94771 406.63672 315.94727 C 406.55112 315.94794 406.46561 315.9543 406.38086 315.9668 L 390.68945 315.9668 L 390.68945 315.20703 L 392.00586 315.20703 L 392.00586 308.7832 L 385.58398 308.7832 L 385.58398 310.10938 L 382.38086 310.10938 L 378.72461 306.45312 C 378.52144 306.18504 378.2504 305.97601 377.93945 305.84766 C 377.91945 305.83866 377.89921 305.83037 377.87891 305.82227 C 377.87591 305.82159 377.87409 305.82131 377.87109 305.82031 C 377.64941 305.73111 377.4128 305.68468 377.17383 305.68359 z M 428.7832 308.7832 L 428.7832 310.10938 L 401.04102 310.10938 C 400.42752 309.26624 399.44302 308.77326 398.40039 308.78711 C 396.62068 308.78011 395.17383 310.22028 395.17383 312 C 395.17383 313.77972 396.62068 315.22038 398.40039 315.21289 C 399.44268 315.22569 400.42639 314.73197 401.03906 313.88867 L 427.43945 313.88867 L 421.25391 320.07227 C 420.99905 320.26735 420.79808 320.52411 420.66992 320.81836 C 420.516 321.14783 420.46038 321.51471 420.50977 321.875 L 420.50977 332.76953 C 419.34251 333.44396 418.62286 334.68903 418.62109 336.03711 C 418.62109 337.03943 419.01977 338.00025 419.72852 338.70898 C 420.43725 339.41772 421.39807 339.81635 422.40039 339.81641 C 423.40271 339.81641 424.36352 339.41772 425.07227 338.70898 C 425.781 338.00024 426.17963 337.03943 426.17969 336.03711 C 426.17869 334.68794 425.45766 333.44185 424.28906 332.76758 L 424.28906 322.38281 L 431.46484 315.20703 L 435.20508 315.20703 L 435.20508 308.7832 L 428.7832 308.7832 z M 349.77539 313.77539 L 349.77539 319.81445 L 355.81445 319.81445 L 355.81445 318.68945 L 370.79883 318.68945 L 378.41602 318.68945 L 379.70898 319.98047 L 379.70898 333.29492 C 379.60938 333.90249 379.812 334.52049 380.25195 334.95117 L 380.26758 334.9668 C 380.27758 334.9758 380.28698 334.98514 380.29688 334.99414 C 380.72414 335.40021 381.31644 335.58367 381.89844 335.49023 L 393.60156 335.49023 C 394.18394 336.21704 395.06872 336.63494 396 336.62305 C 397.69088 336.65315 399.07812 335.29075 399.07812 333.59961 C 399.07812 331.90847 397.69088 330.54604 396 330.57617 C 395.06703 330.56357 394.18048 330.98231 393.59766 331.71094 L 383.49023 331.71094 L 383.49023 319.47266 C 383.53413 319.14437 383.4911 318.81029 383.36523 318.50391 C 383.23994 318.17402 383.02479 317.88579 382.74414 317.67188 L 380.73438 315.66211 C 380.53393 315.39708 380.26715 315.18958 379.96094 315.06055 C 379.93584 315.04895 379.91047 315.03784 379.88477 315.02734 C 379.88177 315.02667 379.87995 315.02639 379.87695 315.02539 C 379.65514 314.93679 379.41854 314.89109 379.17969 314.89062 C 379.09599 314.89159 379.0125 314.89766 378.92969 314.91016 L 370.79883 314.91016 L 355.81445 314.91016 L 355.81445 313.77539 L 349.77539 313.77539 z M 364.17578 320.97656 L 364.17578 327.01367 L 370.21484 327.01367 L 370.21484 320.97656 L 364.17578 320.97656 z M 396 320.97656 C 394.31191 320.95046 392.92969 322.31171 392.92969 324 C 392.92969 325.68829 394.31191 327.04955 396 327.02344 C 397.68809 327.04954 399.07031 325.68829 399.07031 324 C 399.07031 322.31171 397.68809 320.95045 396 320.97656 z M 451.19922 332.97656 C 449.52946 332.97666 448.17588 334.33024 448.17578 336 C 448.17678 336.11033 448.18377 336.22052 448.19727 336.33008 L 436.01562 348.50977 L 426.17188 348.50977 L 426.17188 346.61719 L 418.61719 346.61719 L 418.61719 348.50977 L 405.87109 348.50977 C 405.76888 348.49547 405.66567 348.48959 405.5625 348.49219 C 405.33357 348.49919 405.1079 348.54859 404.89648 348.63672 C 404.56897 348.76242 404.2829 348.97681 404.07031 349.25586 L 402.41602 350.91016 L 398.39844 350.91016 C 397.81646 350.18262 396.9316 349.76397 396 349.77539 C 394.32966 349.77539 392.97461 351.12849 392.97461 352.79883 C 392.97461 354.46916 394.32966 355.82422 396 355.82422 C 396.93297 355.83682 397.81952 355.41808 398.40234 354.68945 L 402.91992 354.68945 C 403.26542 354.73805 403.61761 354.69003 403.9375 354.55078 C 403.9385 354.55011 403.94041 354.54983 403.94141 354.54883 C 403.96041 354.54083 403.97935 354.53224 403.99805 354.52344 C 404.28618 354.39414 404.53731 354.19472 404.72852 353.94336 L 406.38281 352.28906 L 418.61719 352.28906 L 418.61719 354.17188 L 426.17188 354.17188 L 426.17188 352.28906 L 436.52148 352.28906 C 436.86634 352.33726 437.2178 352.28934 437.53711 352.15039 C 437.55811 352.14139 437.57901 352.13119 437.59961 352.12109 C 437.88659 351.99263 438.13701 351.79459 438.32812 351.54492 L 450.86719 339.00391 C 450.97742 339.01651 451.08827 339.02304 451.19922 339.02344 C 452.86897 339.02334 454.22256 337.66976 454.22266 336 C 454.22256 334.33024 452.86897 332.97666 451.19922 332.97656 z M 367.19922 340.17578 C 366.3261 340.16428 365.49104 340.53142 364.9082 341.18164 C 364.32537 341.83185 364.05167 342.70169 364.1582 343.56836 L 354.05469 353.67188 C 353.79361 353.87114 353.58896 354.13503 353.46094 354.4375 C 353.31257 354.76445 353.26041 355.12691 353.31055 355.48242 L 353.31055 369.32227 C 353.26515 369.65456 353.30855 369.99297 353.4375 370.30273 C 353.5632 370.63025 353.77758 370.91631 354.05664 371.12891 L 358.4707 375.54297 C 358.67028 375.80503 358.93488 376.01039 359.23828 376.13867 C 359.26148 376.14957 359.28499 376.16002 359.30859 376.16992 C 359.31359 376.17092 359.31757 376.17283 359.32227 376.17383 C 359.62655 376.29465 359.957 376.33436 360.28125 376.28906 L 385.58398 376.28906 L 385.58398 377.60547 L 386.91016 377.60547 L 386.91016 381.11328 C 386.86426 381.44767 386.90916 381.78824 387.03906 382.09961 C 387.04406 382.11331 387.04939 382.12703 387.05469 382.14062 C 387.06069 382.15242 387.06627 382.16408 387.07227 382.17578 C 387.20044 382.46675 387.39996 382.72068 387.65234 382.91406 L 389.87109 385.14258 C 390.07698 385.41378 390.3523 385.62432 390.66797 385.75195 C 390.67597 385.75495 390.68361 385.75872 390.69141 385.76172 C 390.70951 385.76872 390.72779 385.77505 390.74609 385.78125 C 391.04089 385.89378 391.35915 385.93071 391.67188 385.88867 L 405.30859 385.88867 C 405.65791 385.93947 406.01448 385.89167 406.33789 385.75 C 406.34689 385.746 406.35623 385.74198 406.36523 385.73828 C 406.36823 385.73628 406.372 385.73442 406.375 385.73242 C 406.67275 385.60376 406.93238 385.40063 407.12891 385.14258 L 409.14258 383.12891 C 409.40969 382.92602 409.61799 382.65571 409.74609 382.3457 C 409.75509 382.3257 409.76338 382.30546 409.77148 382.28516 C 409.77216 382.28216 409.77244 382.28034 409.77344 382.27734 C 409.89325 381.97486 409.93294 381.64655 409.88867 381.32422 L 409.88867 377.02734 C 411.03995 376.21683 411.52897 374.75176 411.0957 373.41211 C 410.66245 372.07246 409.40787 371.17035 408 371.1875 C 406.59291 371.1707 405.33785 372.07142 404.9043 373.41016 C 404.47074 374.74888 404.9596 376.2141 406.10938 377.02539 L 406.10938 380.81836 L 404.81836 382.10938 L 392.18555 382.10938 L 390.68945 380.60742 L 390.68945 377.60547 L 392.00586 377.60547 L 392.00586 371.18359 L 385.58398 371.18359 L 385.58398 372.50977 L 360.7832 372.50977 L 357.08984 368.81836 L 357.08984 355.98047 L 366.86523 346.20508 C 366.97615 346.21708 367.08765 346.22296 367.19922 346.22266 C 368.89009 346.25276 370.27734 344.89036 370.27734 343.19922 C 370.27734 341.50807 368.89009 340.14565 367.19922 340.17578 z M 396 340.17578 C 395.06703 340.16318 394.18048 340.58192 393.59766 341.31055 L 391.47656 341.31055 C 391.37247 341.29525 391.26729 341.28872 391.16211 341.29102 C 390.93384 341.29902 390.70885 341.34762 390.49805 341.43555 C 390.47575 341.44455 390.45364 341.45339 390.43164 341.46289 L 390.42969 341.46484 C 390.13051 341.59294 389.86947 341.7961 389.67188 342.05469 L 382.85547 348.87109 C 382.58908 349.07423 382.38147 349.34452 382.25391 349.6543 C 382.1123 349.97422 382.06226 350.32716 382.10938 350.67383 L 382.10938 357.33789 C 382.06768 357.65944 382.10937 357.98633 382.23047 358.28711 C 382.356 358.62223 382.57408 358.91482 382.85938 359.13086 L 384.87109 361.14453 C 385.07423 361.41092 385.34452 361.61853 385.6543 361.74609 C 385.6724 361.75409 385.69058 361.76203 385.70898 361.76953 C 385.71398 361.77053 385.71796 361.77244 385.72266 361.77344 C 386.02694 361.89426 386.35739 361.93396 386.68164 361.88867 L 397.61523 361.88867 L 401.67188 365.94531 C 401.86695 366.20016 402.12372 366.40114 402.41797 366.5293 C 402.74744 366.68322 403.11432 366.73884 403.47461 366.68945 L 426.41602 366.68945 L 426.89453 367.16797 L 426.89453 370.90625 C 426.84913 371.23854 426.89253 371.57695 427.02148 371.88672 C 427.14719 372.21423 427.36158 372.5003 427.64062 372.71289 L 428.78711 373.85938 C 428.6269 374.80021 428.8929 375.76337 429.51367 376.48828 C 430.13444 377.21321 431.0457 377.62486 432 377.61133 C 432.86577 377.63293 433.70424 377.3039 434.32422 376.69922 C 434.94421 376.09453 435.29297 375.26447 435.29297 374.39844 C 435.29297 372.59255 433.80532 371.14238 432 371.1875 C 431.83132 371.18664 431.66283 371.19901 431.49609 371.22461 L 430.67383 370.40234 L 430.67383 366.66211 C 430.71883 366.3319 430.67583 365.99567 430.54883 365.6875 C 430.42331 365.35667 430.20745 365.0677 429.92578 364.85352 L 428.72852 363.65625 C 428.52894 363.39418 428.26435 363.18883 427.96094 363.06055 C 427.93584 363.04895 427.91047 363.03784 427.88477 363.02734 C 427.88177 363.02667 427.87995 363.02639 427.87695 363.02539 C 427.65514 362.93679 427.41854 362.89109 427.17969 362.89062 C 427.09409 362.8913 427.00858 362.89766 426.92383 362.91016 L 403.98242 362.91016 L 399.92578 358.85547 C 399.71426 358.57699 399.42961 358.36266 399.10352 358.23633 C 399.09752 358.23333 399.09184 358.23152 399.08594 358.22852 C 399.07894 358.22652 399.07165 358.22466 399.06445 358.22266 C 398.84666 358.13706 398.61486 358.09272 398.38086 358.0918 C 398.29656 358.09199 398.2124 358.09778 398.12891 358.10938 L 387.18164 358.10938 L 385.88867 356.81641 L 385.88867 351.18359 L 391.98047 345.08984 L 393.60156 345.08984 C 394.18394 345.81665 395.06872 346.23455 396 346.22266 C 397.69088 346.25276 399.07813 344.89036 399.07812 343.19922 C 399.07812 341.50807 397.69088 340.14565 396 340.17578 z M 451.19922 351.87305 C 449.52946 351.87314 448.17589 353.22673 448.17578 354.89648 C 448.1748 356.56701 449.5287 357.92178 451.19922 357.92188 C 452.11781 357.92088 452.98594 357.50146 453.55859 356.7832 L 463.95508 356.7832 L 463.95703 356.78516 C 464.01763 356.84476 464.08228 356.90025 464.15039 356.95117 L 468.50977 361.30273 C 468.50093 361.63127 468.4613 361.88873 468.42578 362.15234 A 3.3433874 3.3433874 0 0 0 467.00586 364.88281 A 3.3433874 3.3433874 0 0 0 470.34961 368.22656 A 3.3433874 3.3433874 0 0 0 473.69336 364.88281 A 3.3433874 3.3433874 0 0 0 472.33594 362.19727 C 472.32471 361.68158 472.39117 361.22677 472.28906 360.79297 C 472.28506 360.78247 472.14137 359.75842 472.13672 359.74805 C 472.13372 359.74105 472.13095 359.73502 472.12695 359.72852 C 471.99796 359.4364 471.79704 359.18173 471.54297 358.98828 L 467.19336 354.64844 C 467.14066 354.24968 466.96204 353.87816 466.68359 353.58789 C 466.31908 353.19101 465.80249 352.96859 465.26367 352.97656 C 465.17337 352.97856 465.08326 352.98705 464.99414 353.00195 L 453.55469 353.00195 C 452.98094 352.28843 452.1148 351.87331 451.19922 351.87305 z "
     transform="scale(104.16675)"
     id="circle2145" />
  <g
     style="fill:none;fill-opacity:0;stroke:#848400;stroke-width:39.37011182;stroke-linecap:round;stroke-linejoin:round;stroke-opacity:1;stroke-miterlimit:4;stroke-dasharray:none"
     id="g2509"
     transform="translate(-208.33351,-208.33351)" />
  <g
     style="fill:none;fill-opacity:0;stroke:#848400;stroke-width:39.37011182;stroke-linecap:round;stroke-linejoin:round;stroke-opacity:1;stroke-miterlimit:4;stroke-dasharray:none"
     id="g2511"
     transform="translate(-208.33351,-208.33351)" />
  <g
     style="fill:none;fill-opacity:0;stroke:#848400;stroke-width:39.37011182;stroke-linecap:round;stroke-linejoin:round;stroke-opacity:1;stroke-miterlimit:4;stroke-dasharray:none"
     id="g2513"
     transform="translate(-208.33351,-208.33351)" />
  <g
     style="fill:none;fill-opacity:0;stroke:#848400;stroke-width:39.37011182;stroke-linecap:round;stroke-linejoin:round;stroke-opacity:1;stroke-miterlimit:4;stroke-dasharray:none"
     id="g2515"
     transform="translate(-208.33351,-208.33351)" />
  <g
     style="fill:none;fill-opacity:0;stroke:#848400;stroke-width:39.37011182;stroke-linecap:round;stroke-linejoin:round;stroke-opacity:1;stroke-miterlimit:4;stroke-dasharray:none"
     id="g2517"
     transform="translate(-208.33351,-208.33351)" />
  <g
     style="fill:none;fill-opacity:0;stroke:#848400;stroke-width:39.37011182;stroke-linecap:round;stroke-linejoin:round;stroke-opacity:1;stroke-miterlimit:4;stroke-dasharray:none"
     id="g2519"
     transform="translate(-208.33351,-208.33351)" />
  <g
     style="fill:none;fill-opacity:0;stroke:#848400;stroke-width:39.37011182;stroke-linecap:round;stroke-linejoin:round;stroke-opacity:1;stroke-miterlimit:4;stroke-dasharray:none"
     id="g2521"
     transform="translate(-208.33351,-208.33351)" />
  <g
     style="fill:none;fill-opacity:0;stroke:#848400;stroke-width:39.37011182;stroke-linecap:round;stroke-linejoin:round;stroke-opacity:1;stroke-miterlimit:4;stroke-dasharray:none"
     id="g2523"
     transform="translate(-208.33351,-208.33351)" />
  <g
     style="fill:none;fill-opacity:0;stroke:#848400;stroke-width:39.37011182;stroke-linecap:round;stroke-linejoin:round;stroke-opacity:1;stroke-miterlimit:4;stroke-dasharray:none"
     id="g2525"
     transform="translate(-208.33351,-208.33351)" />
  <g
     style="fill:none;fill-opacity:0;stroke:#848400;stroke-width:39.37011182;stroke-linecap:round;stroke-linejoin:round;stroke-opacity:1;stroke-miterlimit:4;stroke-dasharray:none"
     id="g2527"
     transform="translate(-208.33351,-208.33351)" />
  <g
     inkscape:groupmode="layer"
     id="layer1"
     inkscape:label="Cut"
     style="display:none">
    <g
       style="fill:#c2c200;fill-opacity:0;stroke:#c2c200;stroke-width:19.68499947;stroke-linecap:round;stroke-linejoin:round;stroke-opacity:1"
       id="g2505"
       transform="translate(-208.33351,-208.33351)">
      <path
         d="M 35846,40811 H 50807 V 31755 H 35846"
         id="path2499"
         inkscape:connector-curvature="0"
         sodipodi:nodetypes="cccc" />
      <path
         d="m 35846,31755 v 9056"
         id="path2501"
         inkscape:connector-curvature="0" />
    </g>
  </g>
</svg>
