M48
; DRILL file {KiCad 5.1.4+dfsg1-1~bpo10+1} date Sat 28 Sep 2019 07:59:15 PM CEST
; FORMAT={-:-/ absolute / metric / decimal}
; #@! TF.CreationDate,2019-09-28T19:59:15+02:00
; #@! TF.GenerationSoftware,Kicad,Pcbnew,5.1.4+dfsg1-1~bpo10+1
FMAT,2
METRIC
T1C0.400
T2C0.700
T3C0.950
T4C1.000
T5C3.200
T6C4.300
T7C6.400
%
G90
G05
T1
X47.244Y-84.328
X50.546Y-50.8
X63.246Y-112.522
X65.019Y-118.11
X75.368Y-90.24
X79.502Y-56.469
X80.101Y-60.869
X80.264Y-91.44
X80.332Y-149.284
X80.518Y-48.768
X80.518Y-52.07
X81.026Y-99.06
X84.328Y-71.12
X87.376Y-112.776
X87.884Y-84.074
X87.884Y-93.472
X88.646Y-67.818
X89.916Y-90.932
X90.424Y-118.618
X90.678Y-109.982
X93.472Y-104.983
X94.996Y-65.532
X95.758Y-146.558
X96.52Y-108.204
X97.282Y-81.026
X99.822Y-62.738
X101.6Y-101.092
X101.854Y-82.042
X104.394Y-84.328
X108.204Y-73.914
X108.966Y-127.508
X115.062Y-86.868
X115.062Y-134.366
X115.316Y-140.97
X117.348Y-55.372
X119.888Y-134.366
X120.142Y-92.202
X120.904Y-149.352
X123.444Y-40.64
X125.984Y-55.372
X128.27Y-135.128
X130.048Y-148.844
X131.064Y-136.398
X131.064Y-146.812
X131.318Y-79.248
X131.572Y-138.684
X133.35Y-94.996
X133.35Y-151.384
X135.128Y-94.996
X135.89Y-148.844
X136.906Y-96.774
X140.462Y-92.964
X141.478Y-62.992
X143.002Y-98.298
X146.05Y-102.108
X146.304Y-97.282
X147.32Y-134.112
X149.352Y-136.398
X150.368Y-105.41
X150.622Y-78.486
X151.003Y-114.681
X151.13Y-98.044
X151.384Y-62.992
X152.4Y-82.296
X153.416Y-95.504
X154.346Y-121.326
X155.448Y-72.898
X188.468Y-75.438
T2
X147.32Y-25.4
X147.32Y-30.48
X158.242Y-157.988
X162.641Y-160.528
X36.241Y-107.188
X40.64Y-104.648
X130.81Y-155.702
X130.81Y-160.782
X38.273Y-86.36
X42.672Y-88.9
X160.02Y-39.116
X164.419Y-36.576
T3
X63.56Y-156.827
X64.81Y-158.992
X66.06Y-161.157
X67.31Y-163.322
T4
X96.012Y-138.176
X96.012Y-140.716
X144.78Y-22.352
X147.32Y-22.352
X176.276Y-51.826
X177.546Y-54.025
X178.816Y-56.225
X180.086Y-58.425
X181.356Y-60.625
X182.626Y-62.824
X183.896Y-65.024
X185.166Y-67.224
X45.466Y-67.468
X46.736Y-65.268
X48.006Y-63.069
X49.276Y-60.869
X50.546Y-58.669
X51.816Y-56.469
X53.086Y-54.27
X54.356Y-52.07
X130.81Y-164.084
X133.35Y-164.084
X33.528Y-108.966
X34.798Y-111.166
X106.426Y-173.228
X108.966Y-173.228
X111.506Y-173.228
X114.046Y-173.228
X116.586Y-173.228
X119.126Y-173.228
X121.666Y-173.228
X124.206Y-173.228
X96.012Y-151.892
X96.012Y-154.432
X77.724Y-151.892
X77.724Y-154.432
X165.608Y-140.716
X165.608Y-143.256
X123.952Y-70.104
X123.952Y-72.644
X123.952Y-75.184
X123.952Y-77.724
X123.952Y-80.264
X123.952Y-82.804
X123.952Y-85.344
X123.952Y-87.884
X123.952Y-90.424
X123.952Y-92.964
X123.952Y-95.504
X123.952Y-98.044
X123.952Y-100.584
X123.952Y-103.124
X123.952Y-105.664
X123.952Y-108.204
X123.952Y-110.744
X123.952Y-113.284
X123.952Y-115.824
X123.952Y-118.364
X126.492Y-70.104
X126.492Y-72.644
X126.492Y-75.184
X126.492Y-77.724
X126.492Y-80.264
X126.492Y-82.804
X126.492Y-85.344
X126.492Y-87.884
X126.492Y-90.424
X126.492Y-92.964
X126.492Y-95.504
X126.492Y-98.044
X126.492Y-100.584
X126.492Y-103.124
X126.492Y-105.664
X126.492Y-108.204
X126.492Y-110.744
X126.492Y-113.284
X126.492Y-115.824
X126.492Y-118.364
X44.704Y-128.016
X45.974Y-130.216
X47.244Y-132.415
X48.514Y-134.615
X49.784Y-136.815
X51.054Y-139.015
X52.324Y-141.214
X53.594Y-143.414
X40.64Y-111.506
X40.64Y-114.046
X195.58Y-110.236
X196.85Y-108.036
X198.12Y-105.837
X176.276Y-143.256
X177.546Y-141.056
X178.816Y-138.857
X180.086Y-136.657
X181.356Y-134.457
X182.626Y-132.257
X183.896Y-130.058
X185.166Y-127.858
X164.338Y-164.252
X165.608Y-162.052
X106.426Y-22.38
X108.966Y-22.38
X111.506Y-22.38
X114.046Y-22.38
X116.586Y-22.38
X119.126Y-22.38
X121.666Y-22.38
X124.206Y-22.38
X73.914Y-23.876
X76.454Y-23.876
X78.994Y-23.876
X34.29Y-87.122
X35.56Y-84.922
X48.26Y-101.854
X48.26Y-104.394
X72.898Y-173.482
X75.438Y-173.482
X77.978Y-173.482
X80.518Y-173.482
X83.058Y-173.482
X77.724Y-138.176
X77.724Y-140.716
X77.724Y-143.256
X165.862Y-33.106
X167.132Y-35.306
T5
X124.968Y-64.262
X124.968Y-124.206
T6
X156.972Y-171.704
X157.734Y-23.622
X29.718Y-97.79
T7
X114.3Y-97.028
T0
M30
