G04 #@! TF.GenerationSoftware,KiCad,Pcbnew,5.1.4+dfsg1-1~bpo10+1*
G04 #@! TF.CreationDate,2019-09-28T19:59:17+02:00*
G04 #@! TF.ProjectId,hoorch,686f6f72-6368-42e6-9b69-6361645f7063,rev?*
G04 #@! TF.SameCoordinates,Original*
G04 #@! TF.FileFunction,Copper,L2,Bot*
G04 #@! TF.FilePolarity,Positive*
%FSLAX46Y46*%
G04 Gerber Fmt 4.6, Leading zero omitted, Abs format (unit mm)*
G04 Created by KiCad (PCBNEW 5.1.4+dfsg1-1~bpo10+1) date 2019-09-28 19:59:17*
%MOMM*%
%LPD*%
G04 APERTURE LIST*
%ADD10O,1.700000X1.700000*%
%ADD11R,1.700000X1.700000*%
%ADD12C,1.700000*%
%ADD13C,1.700000*%
%ADD14C,0.100000*%
%ADD15C,1.400000*%
%ADD16C,1.400000*%
%ADD17O,1.400000X1.400000*%
%ADD18C,0.800000*%
%ADD19C,1.000000*%
G04 APERTURE END LIST*
D10*
X96012000Y-138176000D03*
D11*
X96012000Y-140716000D03*
D12*
X164338000Y-164251705D03*
D13*
X164338000Y-164251705D02*
X164338000Y-164251705D01*
D12*
X165608000Y-162052000D03*
D14*
G36*
X164446878Y-162363122D02*
G01*
X165296878Y-160890878D01*
X166769122Y-161740878D01*
X165919122Y-163213122D01*
X164446878Y-162363122D01*
X164446878Y-162363122D01*
G37*
D10*
X77724000Y-143256000D03*
X77724000Y-140716000D03*
D11*
X77724000Y-138176000D03*
X83058000Y-173482000D03*
D10*
X80518000Y-173482000D03*
X77978000Y-173482000D03*
X75438000Y-173482000D03*
X72898000Y-173482000D03*
D11*
X78994000Y-23876000D03*
D10*
X76454000Y-23876000D03*
X73914000Y-23876000D03*
D11*
X126492000Y-118364000D03*
D10*
X123952000Y-118364000D03*
X126492000Y-115824000D03*
X123952000Y-115824000D03*
X126492000Y-113284000D03*
X123952000Y-113284000D03*
X126492000Y-110744000D03*
X123952000Y-110744000D03*
X126492000Y-108204000D03*
X123952000Y-108204000D03*
X126492000Y-105664000D03*
X123952000Y-105664000D03*
X126492000Y-103124000D03*
X123952000Y-103124000D03*
X126492000Y-100584000D03*
X123952000Y-100584000D03*
X126492000Y-98044000D03*
X123952000Y-98044000D03*
X126492000Y-95504000D03*
X123952000Y-95504000D03*
X126492000Y-92964000D03*
X123952000Y-92964000D03*
X126492000Y-90424000D03*
X123952000Y-90424000D03*
X126492000Y-87884000D03*
X123952000Y-87884000D03*
X126492000Y-85344000D03*
X123952000Y-85344000D03*
X126492000Y-82804000D03*
X123952000Y-82804000D03*
X126492000Y-80264000D03*
X123952000Y-80264000D03*
X126492000Y-77724000D03*
X123952000Y-77724000D03*
X126492000Y-75184000D03*
X123952000Y-75184000D03*
X126492000Y-72644000D03*
X123952000Y-72644000D03*
X126492000Y-70104000D03*
X123952000Y-70104000D03*
D11*
X96012000Y-154432000D03*
D10*
X96012000Y-151892000D03*
D11*
X165608000Y-140716000D03*
D10*
X165608000Y-143256000D03*
D15*
X36240591Y-107188000D03*
D16*
X36240591Y-107188000D02*
X36240591Y-107188000D01*
D15*
X40640000Y-104648000D03*
X130810000Y-155702000D03*
D17*
X130810000Y-160782000D03*
D15*
X162641409Y-160528000D03*
D16*
X162641409Y-160528000D02*
X162641409Y-160528000D01*
D15*
X158242000Y-157988000D03*
X160020000Y-39116000D03*
X164419409Y-36576000D03*
D16*
X164419409Y-36576000D02*
X164419409Y-36576000D01*
D17*
X147320000Y-25400000D03*
D15*
X147320000Y-30480000D03*
X42672000Y-88900000D03*
X38272591Y-86360000D03*
D16*
X38272591Y-86360000D02*
X38272591Y-86360000D01*
D10*
X106426000Y-22380000D03*
X108966000Y-22380000D03*
X111506000Y-22380000D03*
X114046000Y-22380000D03*
X116586000Y-22380000D03*
X119126000Y-22380000D03*
X121666000Y-22380000D03*
D11*
X124206000Y-22380000D03*
D12*
X54356000Y-52070000D03*
D14*
G36*
X53194878Y-52381122D02*
G01*
X54044878Y-50908878D01*
X55517122Y-51758878D01*
X54667122Y-53231122D01*
X53194878Y-52381122D01*
X53194878Y-52381122D01*
G37*
D12*
X53086000Y-54269705D03*
D13*
X53086000Y-54269705D02*
X53086000Y-54269705D01*
D12*
X51816000Y-56469409D03*
D13*
X51816000Y-56469409D02*
X51816000Y-56469409D01*
D12*
X50546000Y-58669114D03*
D13*
X50546000Y-58669114D02*
X50546000Y-58669114D01*
D12*
X49276000Y-60868818D03*
D13*
X49276000Y-60868818D02*
X49276000Y-60868818D01*
D12*
X48006000Y-63068523D03*
D13*
X48006000Y-63068523D02*
X48006000Y-63068523D01*
D12*
X46736000Y-65268227D03*
D13*
X46736000Y-65268227D02*
X46736000Y-65268227D01*
D12*
X45466000Y-67467932D03*
D13*
X45466000Y-67467932D02*
X45466000Y-67467932D01*
D12*
X176276000Y-51825773D03*
D13*
X176276000Y-51825773D02*
X176276000Y-51825773D01*
D12*
X177546000Y-54025478D03*
D13*
X177546000Y-54025478D02*
X177546000Y-54025478D01*
D12*
X178816000Y-56225182D03*
D13*
X178816000Y-56225182D02*
X178816000Y-56225182D01*
D12*
X180086000Y-58424887D03*
D13*
X180086000Y-58424887D02*
X180086000Y-58424887D01*
D12*
X181356000Y-60624591D03*
D13*
X181356000Y-60624591D02*
X181356000Y-60624591D01*
D12*
X182626000Y-62824296D03*
D13*
X182626000Y-62824296D02*
X182626000Y-62824296D01*
D12*
X183896000Y-65024000D03*
D13*
X183896000Y-65024000D02*
X183896000Y-65024000D01*
D12*
X185166000Y-67223705D03*
D14*
G36*
X185477122Y-66062583D02*
G01*
X186327122Y-67534827D01*
X184854878Y-68384827D01*
X184004878Y-66912583D01*
X185477122Y-66062583D01*
X185477122Y-66062583D01*
G37*
D12*
X176276000Y-143256000D03*
D14*
G36*
X177437122Y-142944878D02*
G01*
X176587122Y-144417122D01*
X175114878Y-143567122D01*
X175964878Y-142094878D01*
X177437122Y-142944878D01*
X177437122Y-142944878D01*
G37*
D12*
X177546000Y-141056295D03*
D13*
X177546000Y-141056295D02*
X177546000Y-141056295D01*
D12*
X178816000Y-138856591D03*
D13*
X178816000Y-138856591D02*
X178816000Y-138856591D01*
D12*
X180086000Y-136656886D03*
D13*
X180086000Y-136656886D02*
X180086000Y-136656886D01*
D12*
X181356000Y-134457182D03*
D13*
X181356000Y-134457182D02*
X181356000Y-134457182D01*
D12*
X182626000Y-132257477D03*
D13*
X182626000Y-132257477D02*
X182626000Y-132257477D01*
D12*
X183896000Y-130057773D03*
D13*
X183896000Y-130057773D02*
X183896000Y-130057773D01*
D12*
X185166000Y-127858068D03*
D13*
X185166000Y-127858068D02*
X185166000Y-127858068D01*
D10*
X124206000Y-173228000D03*
X121666000Y-173228000D03*
X119126000Y-173228000D03*
X116586000Y-173228000D03*
X114046000Y-173228000D03*
X111506000Y-173228000D03*
X108966000Y-173228000D03*
D11*
X106426000Y-173228000D03*
D12*
X44704000Y-128016000D03*
D14*
G36*
X44392878Y-129177122D02*
G01*
X43542878Y-127704878D01*
X45015122Y-126854878D01*
X45865122Y-128327122D01*
X44392878Y-129177122D01*
X44392878Y-129177122D01*
G37*
D12*
X45974000Y-130215705D03*
D13*
X45974000Y-130215705D02*
X45974000Y-130215705D01*
D12*
X47244000Y-132415409D03*
D13*
X47244000Y-132415409D02*
X47244000Y-132415409D01*
D12*
X48514000Y-134615114D03*
D13*
X48514000Y-134615114D02*
X48514000Y-134615114D01*
D12*
X49784000Y-136814818D03*
D13*
X49784000Y-136814818D02*
X49784000Y-136814818D01*
D12*
X51054000Y-139014523D03*
D13*
X51054000Y-139014523D02*
X51054000Y-139014523D01*
D12*
X52324000Y-141214227D03*
D13*
X52324000Y-141214227D02*
X52324000Y-141214227D01*
D12*
X53594000Y-143413932D03*
D13*
X53594000Y-143413932D02*
X53594000Y-143413932D01*
D14*
G36*
X67654219Y-162190420D02*
G01*
X67678592Y-162193224D01*
X67702573Y-162198404D01*
X67725930Y-162205908D01*
X67748440Y-162215667D01*
X67769885Y-162227584D01*
X67790058Y-162241547D01*
X67808766Y-162257419D01*
X67825828Y-162275048D01*
X67841080Y-162294266D01*
X67854374Y-162314885D01*
X68454374Y-163354115D01*
X68465584Y-163375938D01*
X68474601Y-163398755D01*
X68481337Y-163422346D01*
X68485729Y-163446483D01*
X68487734Y-163470935D01*
X68487333Y-163495466D01*
X68484529Y-163519839D01*
X68479349Y-163543820D01*
X68471844Y-163567177D01*
X68462086Y-163589687D01*
X68450169Y-163611132D01*
X68436206Y-163631305D01*
X68420334Y-163650013D01*
X68402704Y-163667075D01*
X68383487Y-163682327D01*
X68362868Y-163695621D01*
X67107132Y-164420621D01*
X67085309Y-164431831D01*
X67062492Y-164440848D01*
X67038901Y-164447584D01*
X67014764Y-164451976D01*
X66990312Y-164453981D01*
X66965781Y-164453580D01*
X66941408Y-164450776D01*
X66917427Y-164445596D01*
X66894070Y-164438092D01*
X66871560Y-164428333D01*
X66850115Y-164416416D01*
X66829942Y-164402453D01*
X66811234Y-164386581D01*
X66794172Y-164368952D01*
X66778920Y-164349734D01*
X66765626Y-164329115D01*
X66165626Y-163289885D01*
X66154416Y-163268062D01*
X66145399Y-163245245D01*
X66138663Y-163221654D01*
X66134271Y-163197517D01*
X66132266Y-163173065D01*
X66132667Y-163148534D01*
X66135471Y-163124161D01*
X66140651Y-163100180D01*
X66148156Y-163076823D01*
X66157914Y-163054313D01*
X66169831Y-163032868D01*
X66183794Y-163012695D01*
X66199666Y-162993987D01*
X66217296Y-162976925D01*
X66236513Y-162961673D01*
X66257132Y-162948379D01*
X67512868Y-162223379D01*
X67534691Y-162212169D01*
X67557508Y-162203152D01*
X67581099Y-162196416D01*
X67605236Y-162192024D01*
X67629688Y-162190019D01*
X67654219Y-162190420D01*
X67654219Y-162190420D01*
G37*
D12*
X67310000Y-163322000D03*
X66060000Y-161156936D03*
D13*
X65951747Y-161219436D02*
X66168253Y-161094436D01*
D12*
X64810000Y-158991873D03*
D13*
X64701747Y-159054373D02*
X64918253Y-158929373D01*
D12*
X63560000Y-156826809D03*
D13*
X63451747Y-156889309D02*
X63668253Y-156764309D01*
D11*
X40640000Y-111506000D03*
D10*
X40640000Y-114046000D03*
X48260000Y-104394000D03*
D11*
X48260000Y-101854000D03*
D12*
X195580000Y-110236000D03*
D14*
G36*
X196741122Y-109924878D02*
G01*
X195891122Y-111397122D01*
X194418878Y-110547122D01*
X195268878Y-109074878D01*
X196741122Y-109924878D01*
X196741122Y-109924878D01*
G37*
D12*
X196850000Y-108036295D03*
D13*
X196850000Y-108036295D02*
X196850000Y-108036295D01*
D12*
X198120000Y-105836591D03*
D13*
X198120000Y-105836591D02*
X198120000Y-105836591D01*
D12*
X34798000Y-111165705D03*
D13*
X34798000Y-111165705D02*
X34798000Y-111165705D01*
D12*
X33528000Y-108966000D03*
D14*
G36*
X33216878Y-110127122D02*
G01*
X32366878Y-108654878D01*
X33839122Y-107804878D01*
X34689122Y-109277122D01*
X33216878Y-110127122D01*
X33216878Y-110127122D01*
G37*
D11*
X130810000Y-164084000D03*
D10*
X133350000Y-164084000D03*
D12*
X167132000Y-35306000D03*
D14*
G36*
X167443122Y-34144878D02*
G01*
X168293122Y-35617122D01*
X166820878Y-36467122D01*
X165970878Y-34994878D01*
X167443122Y-34144878D01*
X167443122Y-34144878D01*
G37*
D12*
X165862000Y-33106295D03*
D13*
X165862000Y-33106295D02*
X165862000Y-33106295D01*
D11*
X147320000Y-22352000D03*
D10*
X144780000Y-22352000D03*
D12*
X34290000Y-87122000D03*
D13*
X34290000Y-87122000D02*
X34290000Y-87122000D01*
D12*
X35560000Y-84922295D03*
D14*
G36*
X34398878Y-85233417D02*
G01*
X35248878Y-83761173D01*
X36721122Y-84611173D01*
X35871122Y-86083417D01*
X34398878Y-85233417D01*
X34398878Y-85233417D01*
G37*
D11*
X77724000Y-154432000D03*
D10*
X77724000Y-151892000D03*
D18*
X115316000Y-140970000D03*
X150368000Y-105410000D03*
X117348000Y-55372000D03*
X125984000Y-55372000D03*
X80101182Y-60868818D03*
X188468000Y-75438000D03*
X95758000Y-146558000D03*
X80331919Y-149284081D03*
X130048000Y-148844000D03*
X133350000Y-151384000D03*
X131064000Y-146812000D03*
X135890000Y-148844000D03*
X131064000Y-136398000D03*
X149352000Y-136398000D03*
X47244000Y-84328000D03*
X90424000Y-118618000D03*
X89916000Y-90932000D03*
X97282000Y-81026000D03*
X108204000Y-73914000D03*
X93472000Y-104982930D03*
X75368009Y-90239991D03*
X88646000Y-67818000D03*
X99822000Y-62738000D03*
X146050000Y-102108000D03*
X151384000Y-62992000D03*
X146304000Y-97282000D03*
X141478000Y-62992000D03*
X87884000Y-84074000D03*
X87884000Y-93472000D03*
X120904000Y-149352000D03*
X131572000Y-138684000D03*
X143002000Y-98298000D03*
X115062000Y-86868000D03*
X94996000Y-65532000D03*
X120142000Y-92202000D03*
X140462000Y-92964000D03*
X155448000Y-72898000D03*
X123444000Y-40640000D03*
X84328000Y-71120000D03*
X101600000Y-101092000D03*
X81026000Y-99060000D03*
X79502000Y-56469409D03*
X136906000Y-96774000D03*
X90678000Y-109982000D03*
X108966000Y-127508000D03*
X128270000Y-135128000D03*
X147320000Y-134112000D03*
X151003000Y-114681000D03*
X150622000Y-78486000D03*
X152400000Y-82296000D03*
X153416000Y-95504000D03*
X80518000Y-48768000D03*
X50546000Y-50800000D03*
X87376000Y-112776000D03*
X63246000Y-112522000D03*
X151130000Y-98044000D03*
X80518000Y-52070000D03*
X154345705Y-121325705D03*
X119888000Y-134366000D03*
X115062000Y-134366000D03*
X135128000Y-94996000D03*
X96520000Y-108204000D03*
X133350000Y-94996000D03*
X131318000Y-79248000D03*
X80264000Y-91440000D03*
X104394000Y-84328000D03*
X65019114Y-118110000D03*
X101854000Y-82042000D03*
D19*
X178816000Y-56225182D02*
X177613919Y-56225182D01*
X111506000Y-22380000D02*
X111506000Y-72644000D01*
X48006000Y-63068523D02*
X86944523Y-63068523D01*
X51903999Y-138164524D02*
X56399476Y-138164524D01*
X51054000Y-139014523D02*
X51903999Y-138164524D01*
X57658000Y-136906000D02*
X72644000Y-151892000D01*
X57658000Y-136906000D02*
X109220000Y-85344000D01*
X56399476Y-138164524D02*
X57658000Y-136906000D01*
X77724000Y-154432000D02*
X75184000Y-154432000D01*
X182626000Y-132257477D02*
X172758262Y-122389738D01*
X112268000Y-73914000D02*
X105029000Y-81153000D01*
X105029000Y-81153000D02*
X109220000Y-85344000D01*
X86944523Y-63068523D02*
X105029000Y-81153000D01*
X112776000Y-73914000D02*
X112268000Y-73914000D01*
X112776000Y-73914000D02*
X114046000Y-75184000D01*
X111506000Y-72644000D02*
X112776000Y-73914000D01*
X166711999Y-32256296D02*
X167641704Y-32256296D01*
X165862000Y-33106295D02*
X166711999Y-32256296D01*
X167641704Y-32256296D02*
X169926000Y-34540592D01*
X169926000Y-56896000D02*
X173434551Y-60404551D01*
X169926000Y-34540592D02*
X169926000Y-56896000D01*
X177613919Y-56225182D02*
X173434551Y-60404551D01*
X119975999Y-172378001D02*
X119975999Y-165266001D01*
X119126000Y-173228000D02*
X119975999Y-172378001D01*
X119975999Y-165266001D02*
X128778000Y-156464000D01*
X128778000Y-156464000D02*
X128778000Y-152908000D01*
X115385991Y-141039991D02*
X115316000Y-140970000D01*
X128778000Y-152908000D02*
X116909991Y-141039991D01*
X116909991Y-141039991D02*
X115385991Y-141039991D01*
X75184000Y-154432000D02*
X72644000Y-151892000D01*
X126492000Y-68901919D02*
X126170081Y-68580000D01*
X126492000Y-70104000D02*
X126492000Y-68901919D01*
X126170081Y-68580000D02*
X125730000Y-68580000D01*
X125730000Y-68580000D02*
X125222000Y-68072000D01*
X121158000Y-68072000D02*
X114046000Y-75184000D01*
X125222000Y-68072000D02*
X121158000Y-68072000D01*
X163068000Y-112699477D02*
X163068000Y-95250000D01*
X182626000Y-132257477D02*
X163068000Y-112699477D01*
X163068000Y-95250000D02*
X188976000Y-69342000D01*
X188976000Y-66900415D02*
X188147622Y-65465622D01*
X188976000Y-69342000D02*
X188976000Y-66900415D01*
X188147622Y-65465622D02*
X185420000Y-62738000D01*
X185420000Y-62738000D02*
X185420000Y-61468000D01*
X185420000Y-61468000D02*
X183388000Y-59436000D01*
X183388000Y-59436000D02*
X183388000Y-58166000D01*
X181447182Y-56225182D02*
X178816000Y-56225182D01*
X183388000Y-58166000D02*
X181447182Y-56225182D01*
X181356000Y-134457182D02*
X179415182Y-134457182D01*
X179415182Y-134457182D02*
X152549444Y-107591444D01*
X117348000Y-55372000D02*
X125984000Y-55372000D01*
X114046000Y-52070000D02*
X117348000Y-55372000D01*
X114046000Y-22380000D02*
X114046000Y-52070000D01*
X152549444Y-107591444D02*
X150368000Y-105410000D01*
X80101182Y-60868818D02*
X49276000Y-60868818D01*
X188468000Y-75438000D02*
X188468000Y-128778000D01*
X188468000Y-128778000D02*
X186182000Y-131064000D01*
X186182000Y-131064000D02*
X186182000Y-132842000D01*
X184566818Y-134457182D02*
X181356000Y-134457182D01*
X186182000Y-132842000D02*
X184566818Y-134457182D01*
X95758000Y-146558000D02*
X83058000Y-146558000D01*
X83058000Y-146558000D02*
X80331919Y-149284081D01*
X130447999Y-149243999D02*
X131209999Y-149243999D01*
X130048000Y-148844000D02*
X130447999Y-149243999D01*
X131209999Y-149243999D02*
X133350000Y-151384000D01*
X131064000Y-146812000D02*
X134112000Y-146812000D01*
X134112000Y-146812000D02*
X135890000Y-148590000D01*
X135890000Y-148590000D02*
X135890000Y-148844000D01*
X131064000Y-136398000D02*
X149352000Y-136398000D01*
X99060000Y-162306000D02*
X94996000Y-166370000D01*
X84908000Y-173482000D02*
X83058000Y-173482000D01*
X92020000Y-166370000D02*
X84908000Y-173482000D01*
X94996000Y-166370000D02*
X92020000Y-166370000D01*
X97214081Y-151892000D02*
X99060000Y-153737919D01*
X99060000Y-153737919D02*
X99060000Y-162306000D01*
X96012000Y-151892000D02*
X97214081Y-151892000D01*
X83312000Y-168402000D02*
X83312000Y-171378000D01*
X55460066Y-147574000D02*
X62484000Y-147574000D01*
X55206066Y-147828000D02*
X55460066Y-147574000D01*
X83312000Y-171378000D02*
X83058000Y-171632000D01*
X53594000Y-147828000D02*
X55206066Y-147828000D01*
X52324000Y-146558000D02*
X53594000Y-147828000D01*
X49503999Y-142721999D02*
X52324000Y-145542000D01*
X49503999Y-140181999D02*
X49503999Y-142721999D01*
X43180000Y-96520000D02*
X43180000Y-119126000D01*
X41910000Y-120396000D02*
X41910000Y-128778000D01*
X46228000Y-93472000D02*
X43180000Y-96520000D01*
X62484000Y-147574000D02*
X83312000Y-168402000D01*
X42418000Y-130302000D02*
X43688000Y-131572000D01*
X46228000Y-90678000D02*
X46228000Y-93472000D01*
X46482000Y-90424000D02*
X46228000Y-90678000D01*
X47244000Y-84328000D02*
X46482000Y-84328000D01*
X46482000Y-84328000D02*
X46482000Y-90424000D01*
X83058000Y-171632000D02*
X83058000Y-173482000D01*
X47244000Y-136652000D02*
X47244000Y-137922000D01*
X43180000Y-119126000D02*
X41910000Y-120396000D01*
X41910000Y-128778000D02*
X42418000Y-129286000D01*
X47244000Y-137922000D02*
X49503999Y-140181999D01*
X43688000Y-133028216D02*
X43780593Y-133188593D01*
X52324000Y-145542000D02*
X52324000Y-146558000D01*
X42418000Y-129286000D02*
X42418000Y-130302000D01*
X43688000Y-131572000D02*
X43688000Y-133028216D01*
X43780593Y-133188593D02*
X47244000Y-136652000D01*
X67310000Y-163322000D02*
X73660000Y-163322000D01*
X80518000Y-170180000D02*
X80518000Y-173482000D01*
X73660000Y-163322000D02*
X80518000Y-170180000D01*
X77978000Y-174752000D02*
X77978000Y-173482000D01*
X89662000Y-175768000D02*
X78994000Y-175768000D01*
X91440000Y-171196000D02*
X91440000Y-173990000D01*
X97862000Y-140716000D02*
X100584000Y-143438000D01*
X96012000Y-140716000D02*
X97862000Y-140716000D01*
X100584000Y-163576000D02*
X93472000Y-170688000D01*
X93472000Y-170688000D02*
X91948000Y-170688000D01*
X78994000Y-175768000D02*
X77978000Y-174752000D01*
X91440000Y-173990000D02*
X89662000Y-175768000D01*
X100584000Y-143438000D02*
X100584000Y-163576000D01*
X91948000Y-170688000D02*
X91440000Y-171196000D01*
X97790000Y-138938000D02*
X97790000Y-125730000D01*
X96012000Y-140716000D02*
X97790000Y-138938000D01*
X90439818Y-118602182D02*
X90424000Y-118618000D01*
X97790000Y-125730000D02*
X90662182Y-118602182D01*
X90662182Y-118602182D02*
X90439818Y-118602182D01*
X89916000Y-90932000D02*
X89916000Y-87884000D01*
X89916000Y-87884000D02*
X96774000Y-81026000D01*
X96774000Y-81026000D02*
X97282000Y-81026000D01*
X108204000Y-73914000D02*
X108204000Y-65278000D01*
X76454000Y-33528000D02*
X76454000Y-23876000D01*
X108204000Y-65278000D02*
X76454000Y-33528000D01*
X66060000Y-160241873D02*
X64810000Y-158991873D01*
X66060000Y-161156936D02*
X66060000Y-160241873D01*
X96012000Y-138176000D02*
X96012000Y-126238000D01*
X96012000Y-126238000D02*
X86175991Y-116401991D01*
X86175991Y-116401991D02*
X85598000Y-115824000D01*
X85598000Y-112856930D02*
X93472000Y-104982930D01*
X85598000Y-115824000D02*
X85598000Y-112856930D01*
X75368009Y-76350921D02*
X77724000Y-73994930D01*
X75368009Y-90239991D02*
X75368009Y-76350921D01*
X77724000Y-73994930D02*
X77724000Y-70866000D01*
X77724000Y-70866000D02*
X80772000Y-67818000D01*
X80772000Y-67818000D02*
X87390010Y-67818000D01*
X87390010Y-67818000D02*
X88646000Y-67818000D01*
X99822000Y-62738000D02*
X99822000Y-60198000D01*
X73914000Y-34290000D02*
X73914000Y-23876000D01*
X99822000Y-60198000D02*
X73914000Y-34290000D01*
X181356000Y-60624591D02*
X157652591Y-84328000D01*
X157652591Y-84328000D02*
X157652591Y-95585409D01*
X157652591Y-95585409D02*
X151130000Y-102108000D01*
X151130000Y-102108000D02*
X146050000Y-102108000D01*
X151783999Y-62592001D02*
X151384000Y-62992000D01*
X160020000Y-39116000D02*
X160020000Y-54356000D01*
X160020000Y-54356000D02*
X151783999Y-62592001D01*
X146304000Y-97282000D02*
X146304000Y-91440000D01*
X146304000Y-91440000D02*
X141478000Y-86614000D01*
X141478000Y-86614000D02*
X141478000Y-62992000D01*
X87884000Y-84074000D02*
X87884000Y-84639685D01*
X87884000Y-84639685D02*
X87884000Y-93472000D01*
X114046000Y-156210000D02*
X114046000Y-173228000D01*
X120904000Y-149352000D02*
X114046000Y-156210000D01*
X131172001Y-138284001D02*
X127362001Y-138284001D01*
X131572000Y-138684000D02*
X131172001Y-138284001D01*
X127069991Y-137991991D02*
X127069991Y-137483991D01*
X127362001Y-138284001D02*
X127069991Y-137991991D01*
X127069991Y-137483991D02*
X126492000Y-136906000D01*
X126492000Y-136906000D02*
X126492000Y-133604000D01*
X126492000Y-133604000D02*
X131572000Y-128524000D01*
X131572000Y-128524000D02*
X131572000Y-119126000D01*
X131572000Y-119126000D02*
X131318000Y-118872000D01*
X131318000Y-118872000D02*
X131318000Y-105156000D01*
X129286000Y-103124000D02*
X126492000Y-103124000D01*
X131318000Y-105156000D02*
X129286000Y-103124000D01*
X116586000Y-23582081D02*
X116332000Y-23836081D01*
X116586000Y-22380000D02*
X116586000Y-23582081D01*
X116332000Y-23836081D02*
X116332000Y-38354000D01*
X116332000Y-38354000D02*
X135128000Y-57150000D01*
X135128000Y-57150000D02*
X135128000Y-76454000D01*
X135128000Y-76454000D02*
X135128000Y-83566000D01*
X135128000Y-83566000D02*
X143002000Y-91440000D01*
X143002000Y-91440000D02*
X143002000Y-98298000D01*
X94996000Y-65532000D02*
X94996000Y-62738000D01*
X90927114Y-58669114D02*
X50546000Y-58669114D01*
X94996000Y-62738000D02*
X90927114Y-58669114D01*
X117514001Y-89574001D02*
X120142000Y-92202000D01*
X117514001Y-89320001D02*
X115062000Y-86868000D01*
X117514001Y-89574001D02*
X117514001Y-89320001D01*
X178816000Y-138856591D02*
X140208000Y-100248591D01*
X140208000Y-93218000D02*
X140462000Y-92964000D01*
X140208000Y-100248591D02*
X140208000Y-93218000D01*
X119126000Y-22380000D02*
X119126000Y-36322000D01*
X155448000Y-72644000D02*
X155448000Y-72898000D01*
X119126000Y-36322000D02*
X123444000Y-40640000D01*
X123444000Y-40640000D02*
X155448000Y-72644000D01*
X84328000Y-95331409D02*
X84328000Y-71120000D01*
X80939705Y-98719705D02*
X81193705Y-98719705D01*
X80939705Y-98719705D02*
X84328000Y-95331409D01*
X47244000Y-132415409D02*
X80939705Y-98719705D01*
X128778000Y-95504000D02*
X126492000Y-95504000D01*
X140462000Y-92964000D02*
X131318000Y-92964000D01*
X131318000Y-92964000D02*
X128778000Y-95504000D01*
X101999999Y-101491999D02*
X101600000Y-101092000D01*
X111506000Y-110998000D02*
X101999999Y-101491999D01*
X111506000Y-173228000D02*
X111506000Y-110998000D01*
X80182591Y-56469409D02*
X70947409Y-56469409D01*
X70947409Y-56469409D02*
X51816000Y-56469409D01*
X176696001Y-140206296D02*
X176528296Y-140206296D01*
X177546000Y-141056295D02*
X176696001Y-140206296D01*
X108966000Y-173228000D02*
X108966000Y-127508000D01*
X108966000Y-127508000D02*
X91440000Y-109982000D01*
X91440000Y-109982000D02*
X90678000Y-109982000D01*
X128270000Y-135128000D02*
X129286000Y-134112000D01*
X129286000Y-134112000D02*
X147320000Y-134112000D01*
X176528296Y-140206296D02*
X151003000Y-114681000D01*
X151003000Y-114681000D02*
X136906000Y-100584000D01*
X121666000Y-22380000D02*
X121666000Y-23582081D01*
X149536009Y-64192009D02*
X149790009Y-64192009D01*
X121666000Y-36322000D02*
X149536009Y-64192009D01*
X149790009Y-64192009D02*
X156648010Y-71050010D01*
X156648010Y-71050010D02*
X156648010Y-71304010D01*
X156648010Y-71304010D02*
X157988000Y-72644000D01*
X157988000Y-72644000D02*
X157988000Y-72898000D01*
X157988000Y-72898000D02*
X152654000Y-78232000D01*
X151134738Y-78486000D02*
X150622000Y-78486000D01*
X152654000Y-78232000D02*
X151388738Y-78232000D01*
X151388738Y-78232000D02*
X151134738Y-78486000D01*
X147828000Y-89916000D02*
X153416000Y-95504000D01*
X147828000Y-84328000D02*
X147828000Y-89916000D01*
X149860000Y-82296000D02*
X147828000Y-84328000D01*
X152400000Y-82296000D02*
X149860000Y-82296000D01*
X121666000Y-23582081D02*
X121666000Y-36322000D01*
X136906000Y-96774000D02*
X136906000Y-100584000D01*
X80518000Y-48768000D02*
X79952315Y-48768000D01*
X79952315Y-48768000D02*
X52578000Y-48768000D01*
X52578000Y-48768000D02*
X50546000Y-50800000D01*
X44704000Y-128016000D02*
X44704000Y-99822000D01*
X44704000Y-99822000D02*
X50292000Y-94234000D01*
X50292000Y-94234000D02*
X50292000Y-82296000D01*
X43915999Y-75919999D02*
X43915999Y-75665999D01*
X50292000Y-82296000D02*
X43915999Y-75919999D01*
X43915999Y-75665999D02*
X41910000Y-73660000D01*
X41910000Y-73660000D02*
X41910000Y-67056000D01*
X41910000Y-67056000D02*
X43942000Y-65024000D01*
X43942000Y-65024000D02*
X43942000Y-63246000D01*
X43942000Y-63246000D02*
X46228000Y-60960000D01*
X46228000Y-60960000D02*
X46228000Y-59690000D01*
X46228000Y-59690000D02*
X47752000Y-58166000D01*
X47752000Y-58166000D02*
X47752000Y-56642000D01*
X47752000Y-56642000D02*
X49784000Y-54610000D01*
X49784000Y-54610000D02*
X49784000Y-53848000D01*
X51562000Y-52070000D02*
X54356000Y-52070000D01*
X49784000Y-53848000D02*
X51562000Y-52070000D01*
X106426000Y-173228000D02*
X106426000Y-131826000D01*
X106426000Y-131826000D02*
X87376000Y-112776000D01*
X50292000Y-99568000D02*
X50292000Y-94234000D01*
X63246000Y-112522000D02*
X50292000Y-99568000D01*
X149352000Y-99822000D02*
X151130000Y-98044000D01*
X142828930Y-99822000D02*
X149352000Y-99822000D01*
X126492000Y-90424000D02*
X139619070Y-90424000D01*
X139619070Y-90424000D02*
X141732000Y-92536930D01*
X141732000Y-92536930D02*
X141732000Y-93472000D01*
X141478000Y-98471070D02*
X142828930Y-99822000D01*
X141732000Y-93472000D02*
X141478000Y-93726000D01*
X141478000Y-93726000D02*
X141478000Y-98471070D01*
X80518000Y-52070000D02*
X54356000Y-52070000D01*
X176276000Y-143256000D02*
X154686000Y-121666000D01*
X154686000Y-121666000D02*
X154345705Y-121325705D01*
X136625949Y-150876000D02*
X131799949Y-155702000D01*
X140462000Y-150876000D02*
X136625949Y-150876000D01*
X131799949Y-155702000D02*
X130810000Y-155702000D01*
X134366000Y-144780000D02*
X140462000Y-150876000D01*
X118110000Y-136652000D02*
X126238000Y-144780000D01*
X118110000Y-106172000D02*
X118110000Y-136652000D01*
X122749919Y-87884000D02*
X122495919Y-88138000D01*
X122495919Y-88138000D02*
X122428000Y-88138000D01*
X123952000Y-87884000D02*
X122749919Y-87884000D01*
X126238000Y-144780000D02*
X134366000Y-144780000D01*
X121666000Y-88900000D02*
X121666000Y-102616000D01*
X122428000Y-88138000D02*
X121666000Y-88900000D01*
X121666000Y-102616000D02*
X118110000Y-106172000D01*
X157252051Y-157988000D02*
X141504051Y-142240000D01*
X158242000Y-157988000D02*
X157252051Y-157988000D01*
X119888000Y-134366000D02*
X119634000Y-134366000D01*
X127762000Y-142240000D02*
X119888000Y-134366000D01*
X141504051Y-142240000D02*
X127762000Y-142240000D01*
X119634000Y-134366000D02*
X119380000Y-134112000D01*
X103886000Y-95504000D02*
X119126000Y-80264000D01*
X103886000Y-99822000D02*
X103886000Y-95504000D01*
X119126000Y-80264000D02*
X123952000Y-80264000D01*
X115062000Y-134366000D02*
X115062000Y-110998000D01*
X115062000Y-110998000D02*
X103886000Y-99822000D01*
X163758000Y-140716000D02*
X135890000Y-112848000D01*
X165608000Y-140716000D02*
X163758000Y-140716000D01*
X135890000Y-110998000D02*
X136144000Y-110744000D01*
X135890000Y-112848000D02*
X135890000Y-110998000D01*
X135890000Y-110998000D02*
X135890000Y-102108000D01*
X135890000Y-102108000D02*
X135636000Y-101854000D01*
X135636000Y-101854000D02*
X135128000Y-101854000D01*
X135128000Y-101854000D02*
X135128000Y-94996000D01*
X135128000Y-94996000D02*
X135128000Y-94318000D01*
X96520000Y-108204000D02*
X96520000Y-100330000D01*
X121666000Y-75184000D02*
X123952000Y-75184000D01*
X96520000Y-100330000D02*
X121666000Y-75184000D01*
X181102000Y-137672886D02*
X181102000Y-141224000D01*
X180086000Y-136656886D02*
X181102000Y-137672886D01*
X181102000Y-141224000D02*
X179578000Y-142748000D01*
X179578000Y-142748000D02*
X179578000Y-143764000D01*
X179578000Y-143764000D02*
X177292000Y-146050000D01*
X177292000Y-146050000D02*
X163576000Y-146050000D01*
X163576000Y-146050000D02*
X133350000Y-115824000D01*
X133350000Y-115824000D02*
X133350000Y-94996000D01*
X130556000Y-72644000D02*
X126492000Y-72644000D01*
X131318000Y-79248000D02*
X131318000Y-73406000D01*
X131318000Y-73406000D02*
X130556000Y-72644000D01*
X80264000Y-91186000D02*
X80264000Y-80772000D01*
X80264000Y-80772000D02*
X82296000Y-78740000D01*
X82296000Y-78740000D02*
X82296000Y-71120000D01*
X91429060Y-69919990D02*
X104394000Y-82884930D01*
X82296000Y-71120000D02*
X83496010Y-69919990D01*
X83496010Y-69919990D02*
X91429060Y-69919990D01*
X104394000Y-82884930D02*
X104394000Y-84328000D01*
X104394000Y-84328000D02*
X104394000Y-82368116D01*
X65019114Y-118110000D02*
X65786000Y-118110000D01*
X65786000Y-118110000D02*
X101854000Y-82042000D01*
M02*
