G04 #@! TF.GenerationSoftware,KiCad,Pcbnew,5.1.4+dfsg1-1~bpo10+1*
G04 #@! TF.CreationDate,2019-09-28T19:59:17+02:00*
G04 #@! TF.ProjectId,hoorch,686f6f72-6368-42e6-9b69-6361645f7063,rev?*
G04 #@! TF.SameCoordinates,Original*
G04 #@! TF.FileFunction,Copper,L1,Top*
G04 #@! TF.FilePolarity,Positive*
%FSLAX46Y46*%
G04 Gerber Fmt 4.6, Leading zero omitted, Abs format (unit mm)*
G04 Created by KiCad (PCBNEW 5.1.4+dfsg1-1~bpo10+1) date 2019-09-28 19:59:17*
%MOMM*%
%LPD*%
G04 APERTURE LIST*
%ADD10O,1.700000X1.700000*%
%ADD11R,1.700000X1.700000*%
%ADD12C,1.700000*%
%ADD13C,1.700000*%
%ADD14C,0.100000*%
%ADD15C,1.400000*%
%ADD16C,1.400000*%
%ADD17O,1.400000X1.400000*%
%ADD18C,0.800000*%
%ADD19C,1.000000*%
%ADD20C,0.250000*%
G04 APERTURE END LIST*
D10*
X96012000Y-138176000D03*
D11*
X96012000Y-140716000D03*
D12*
X164338000Y-164251705D03*
D13*
X164338000Y-164251705D02*
X164338000Y-164251705D01*
D12*
X165608000Y-162052000D03*
D14*
G36*
X164446878Y-162363122D02*
G01*
X165296878Y-160890878D01*
X166769122Y-161740878D01*
X165919122Y-163213122D01*
X164446878Y-162363122D01*
X164446878Y-162363122D01*
G37*
D10*
X77724000Y-143256000D03*
X77724000Y-140716000D03*
D11*
X77724000Y-138176000D03*
X83058000Y-173482000D03*
D10*
X80518000Y-173482000D03*
X77978000Y-173482000D03*
X75438000Y-173482000D03*
X72898000Y-173482000D03*
D11*
X78994000Y-23876000D03*
D10*
X76454000Y-23876000D03*
X73914000Y-23876000D03*
D11*
X126492000Y-118364000D03*
D10*
X123952000Y-118364000D03*
X126492000Y-115824000D03*
X123952000Y-115824000D03*
X126492000Y-113284000D03*
X123952000Y-113284000D03*
X126492000Y-110744000D03*
X123952000Y-110744000D03*
X126492000Y-108204000D03*
X123952000Y-108204000D03*
X126492000Y-105664000D03*
X123952000Y-105664000D03*
X126492000Y-103124000D03*
X123952000Y-103124000D03*
X126492000Y-100584000D03*
X123952000Y-100584000D03*
X126492000Y-98044000D03*
X123952000Y-98044000D03*
X126492000Y-95504000D03*
X123952000Y-95504000D03*
X126492000Y-92964000D03*
X123952000Y-92964000D03*
X126492000Y-90424000D03*
X123952000Y-90424000D03*
X126492000Y-87884000D03*
X123952000Y-87884000D03*
X126492000Y-85344000D03*
X123952000Y-85344000D03*
X126492000Y-82804000D03*
X123952000Y-82804000D03*
X126492000Y-80264000D03*
X123952000Y-80264000D03*
X126492000Y-77724000D03*
X123952000Y-77724000D03*
X126492000Y-75184000D03*
X123952000Y-75184000D03*
X126492000Y-72644000D03*
X123952000Y-72644000D03*
X126492000Y-70104000D03*
X123952000Y-70104000D03*
D11*
X96012000Y-154432000D03*
D10*
X96012000Y-151892000D03*
D11*
X165608000Y-140716000D03*
D10*
X165608000Y-143256000D03*
D15*
X36240591Y-107188000D03*
D16*
X36240591Y-107188000D02*
X36240591Y-107188000D01*
D15*
X40640000Y-104648000D03*
X130810000Y-155702000D03*
D17*
X130810000Y-160782000D03*
D15*
X162641409Y-160528000D03*
D16*
X162641409Y-160528000D02*
X162641409Y-160528000D01*
D15*
X158242000Y-157988000D03*
X160020000Y-39116000D03*
X164419409Y-36576000D03*
D16*
X164419409Y-36576000D02*
X164419409Y-36576000D01*
D17*
X147320000Y-25400000D03*
D15*
X147320000Y-30480000D03*
X42672000Y-88900000D03*
X38272591Y-86360000D03*
D16*
X38272591Y-86360000D02*
X38272591Y-86360000D01*
D10*
X106426000Y-22380000D03*
X108966000Y-22380000D03*
X111506000Y-22380000D03*
X114046000Y-22380000D03*
X116586000Y-22380000D03*
X119126000Y-22380000D03*
X121666000Y-22380000D03*
D11*
X124206000Y-22380000D03*
D12*
X54356000Y-52070000D03*
D14*
G36*
X53194878Y-52381122D02*
G01*
X54044878Y-50908878D01*
X55517122Y-51758878D01*
X54667122Y-53231122D01*
X53194878Y-52381122D01*
X53194878Y-52381122D01*
G37*
D12*
X53086000Y-54269705D03*
D13*
X53086000Y-54269705D02*
X53086000Y-54269705D01*
D12*
X51816000Y-56469409D03*
D13*
X51816000Y-56469409D02*
X51816000Y-56469409D01*
D12*
X50546000Y-58669114D03*
D13*
X50546000Y-58669114D02*
X50546000Y-58669114D01*
D12*
X49276000Y-60868818D03*
D13*
X49276000Y-60868818D02*
X49276000Y-60868818D01*
D12*
X48006000Y-63068523D03*
D13*
X48006000Y-63068523D02*
X48006000Y-63068523D01*
D12*
X46736000Y-65268227D03*
D13*
X46736000Y-65268227D02*
X46736000Y-65268227D01*
D12*
X45466000Y-67467932D03*
D13*
X45466000Y-67467932D02*
X45466000Y-67467932D01*
D12*
X176276000Y-51825773D03*
D13*
X176276000Y-51825773D02*
X176276000Y-51825773D01*
D12*
X177546000Y-54025478D03*
D13*
X177546000Y-54025478D02*
X177546000Y-54025478D01*
D12*
X178816000Y-56225182D03*
D13*
X178816000Y-56225182D02*
X178816000Y-56225182D01*
D12*
X180086000Y-58424887D03*
D13*
X180086000Y-58424887D02*
X180086000Y-58424887D01*
D12*
X181356000Y-60624591D03*
D13*
X181356000Y-60624591D02*
X181356000Y-60624591D01*
D12*
X182626000Y-62824296D03*
D13*
X182626000Y-62824296D02*
X182626000Y-62824296D01*
D12*
X183896000Y-65024000D03*
D13*
X183896000Y-65024000D02*
X183896000Y-65024000D01*
D12*
X185166000Y-67223705D03*
D14*
G36*
X185477122Y-66062583D02*
G01*
X186327122Y-67534827D01*
X184854878Y-68384827D01*
X184004878Y-66912583D01*
X185477122Y-66062583D01*
X185477122Y-66062583D01*
G37*
D12*
X176276000Y-143256000D03*
D14*
G36*
X177437122Y-142944878D02*
G01*
X176587122Y-144417122D01*
X175114878Y-143567122D01*
X175964878Y-142094878D01*
X177437122Y-142944878D01*
X177437122Y-142944878D01*
G37*
D12*
X177546000Y-141056295D03*
D13*
X177546000Y-141056295D02*
X177546000Y-141056295D01*
D12*
X178816000Y-138856591D03*
D13*
X178816000Y-138856591D02*
X178816000Y-138856591D01*
D12*
X180086000Y-136656886D03*
D13*
X180086000Y-136656886D02*
X180086000Y-136656886D01*
D12*
X181356000Y-134457182D03*
D13*
X181356000Y-134457182D02*
X181356000Y-134457182D01*
D12*
X182626000Y-132257477D03*
D13*
X182626000Y-132257477D02*
X182626000Y-132257477D01*
D12*
X183896000Y-130057773D03*
D13*
X183896000Y-130057773D02*
X183896000Y-130057773D01*
D12*
X185166000Y-127858068D03*
D13*
X185166000Y-127858068D02*
X185166000Y-127858068D01*
D10*
X124206000Y-173228000D03*
X121666000Y-173228000D03*
X119126000Y-173228000D03*
X116586000Y-173228000D03*
X114046000Y-173228000D03*
X111506000Y-173228000D03*
X108966000Y-173228000D03*
D11*
X106426000Y-173228000D03*
D12*
X44704000Y-128016000D03*
D14*
G36*
X44392878Y-129177122D02*
G01*
X43542878Y-127704878D01*
X45015122Y-126854878D01*
X45865122Y-128327122D01*
X44392878Y-129177122D01*
X44392878Y-129177122D01*
G37*
D12*
X45974000Y-130215705D03*
D13*
X45974000Y-130215705D02*
X45974000Y-130215705D01*
D12*
X47244000Y-132415409D03*
D13*
X47244000Y-132415409D02*
X47244000Y-132415409D01*
D12*
X48514000Y-134615114D03*
D13*
X48514000Y-134615114D02*
X48514000Y-134615114D01*
D12*
X49784000Y-136814818D03*
D13*
X49784000Y-136814818D02*
X49784000Y-136814818D01*
D12*
X51054000Y-139014523D03*
D13*
X51054000Y-139014523D02*
X51054000Y-139014523D01*
D12*
X52324000Y-141214227D03*
D13*
X52324000Y-141214227D02*
X52324000Y-141214227D01*
D12*
X53594000Y-143413932D03*
D13*
X53594000Y-143413932D02*
X53594000Y-143413932D01*
D14*
G36*
X67654219Y-162190420D02*
G01*
X67678592Y-162193224D01*
X67702573Y-162198404D01*
X67725930Y-162205908D01*
X67748440Y-162215667D01*
X67769885Y-162227584D01*
X67790058Y-162241547D01*
X67808766Y-162257419D01*
X67825828Y-162275048D01*
X67841080Y-162294266D01*
X67854374Y-162314885D01*
X68454374Y-163354115D01*
X68465584Y-163375938D01*
X68474601Y-163398755D01*
X68481337Y-163422346D01*
X68485729Y-163446483D01*
X68487734Y-163470935D01*
X68487333Y-163495466D01*
X68484529Y-163519839D01*
X68479349Y-163543820D01*
X68471844Y-163567177D01*
X68462086Y-163589687D01*
X68450169Y-163611132D01*
X68436206Y-163631305D01*
X68420334Y-163650013D01*
X68402704Y-163667075D01*
X68383487Y-163682327D01*
X68362868Y-163695621D01*
X67107132Y-164420621D01*
X67085309Y-164431831D01*
X67062492Y-164440848D01*
X67038901Y-164447584D01*
X67014764Y-164451976D01*
X66990312Y-164453981D01*
X66965781Y-164453580D01*
X66941408Y-164450776D01*
X66917427Y-164445596D01*
X66894070Y-164438092D01*
X66871560Y-164428333D01*
X66850115Y-164416416D01*
X66829942Y-164402453D01*
X66811234Y-164386581D01*
X66794172Y-164368952D01*
X66778920Y-164349734D01*
X66765626Y-164329115D01*
X66165626Y-163289885D01*
X66154416Y-163268062D01*
X66145399Y-163245245D01*
X66138663Y-163221654D01*
X66134271Y-163197517D01*
X66132266Y-163173065D01*
X66132667Y-163148534D01*
X66135471Y-163124161D01*
X66140651Y-163100180D01*
X66148156Y-163076823D01*
X66157914Y-163054313D01*
X66169831Y-163032868D01*
X66183794Y-163012695D01*
X66199666Y-162993987D01*
X66217296Y-162976925D01*
X66236513Y-162961673D01*
X66257132Y-162948379D01*
X67512868Y-162223379D01*
X67534691Y-162212169D01*
X67557508Y-162203152D01*
X67581099Y-162196416D01*
X67605236Y-162192024D01*
X67629688Y-162190019D01*
X67654219Y-162190420D01*
X67654219Y-162190420D01*
G37*
D12*
X67310000Y-163322000D03*
X66060000Y-161156936D03*
D13*
X65951747Y-161219436D02*
X66168253Y-161094436D01*
D12*
X64810000Y-158991873D03*
D13*
X64701747Y-159054373D02*
X64918253Y-158929373D01*
D12*
X63560000Y-156826809D03*
D13*
X63451747Y-156889309D02*
X63668253Y-156764309D01*
D11*
X40640000Y-111506000D03*
D10*
X40640000Y-114046000D03*
X48260000Y-104394000D03*
D11*
X48260000Y-101854000D03*
D12*
X195580000Y-110236000D03*
D14*
G36*
X196741122Y-109924878D02*
G01*
X195891122Y-111397122D01*
X194418878Y-110547122D01*
X195268878Y-109074878D01*
X196741122Y-109924878D01*
X196741122Y-109924878D01*
G37*
D12*
X196850000Y-108036295D03*
D13*
X196850000Y-108036295D02*
X196850000Y-108036295D01*
D12*
X198120000Y-105836591D03*
D13*
X198120000Y-105836591D02*
X198120000Y-105836591D01*
D12*
X34798000Y-111165705D03*
D13*
X34798000Y-111165705D02*
X34798000Y-111165705D01*
D12*
X33528000Y-108966000D03*
D14*
G36*
X33216878Y-110127122D02*
G01*
X32366878Y-108654878D01*
X33839122Y-107804878D01*
X34689122Y-109277122D01*
X33216878Y-110127122D01*
X33216878Y-110127122D01*
G37*
D11*
X130810000Y-164084000D03*
D10*
X133350000Y-164084000D03*
D12*
X167132000Y-35306000D03*
D14*
G36*
X167443122Y-34144878D02*
G01*
X168293122Y-35617122D01*
X166820878Y-36467122D01*
X165970878Y-34994878D01*
X167443122Y-34144878D01*
X167443122Y-34144878D01*
G37*
D12*
X165862000Y-33106295D03*
D13*
X165862000Y-33106295D02*
X165862000Y-33106295D01*
D11*
X147320000Y-22352000D03*
D10*
X144780000Y-22352000D03*
D12*
X34290000Y-87122000D03*
D13*
X34290000Y-87122000D02*
X34290000Y-87122000D01*
D12*
X35560000Y-84922295D03*
D14*
G36*
X34398878Y-85233417D02*
G01*
X35248878Y-83761173D01*
X36721122Y-84611173D01*
X35871122Y-86083417D01*
X34398878Y-85233417D01*
X34398878Y-85233417D01*
G37*
D11*
X77724000Y-154432000D03*
D10*
X77724000Y-151892000D03*
D18*
X115316000Y-140970000D03*
X150368000Y-105410000D03*
X117348000Y-55372000D03*
X125984000Y-55372000D03*
X80101182Y-60868818D03*
X188468000Y-75438000D03*
X95758000Y-146558000D03*
X80331919Y-149284081D03*
X130048000Y-148844000D03*
X133350000Y-151384000D03*
X131064000Y-146812000D03*
X135890000Y-148844000D03*
X131064000Y-136398000D03*
X149352000Y-136398000D03*
X47244000Y-84328000D03*
X90424000Y-118618000D03*
X89916000Y-90932000D03*
X97282000Y-81026000D03*
X108204000Y-73914000D03*
X93472000Y-104982930D03*
X75368009Y-90239991D03*
X88646000Y-67818000D03*
X99822000Y-62738000D03*
X146050000Y-102108000D03*
X151384000Y-62992000D03*
X146304000Y-97282000D03*
X141478000Y-62992000D03*
X87884000Y-84074000D03*
X87884000Y-93472000D03*
X120904000Y-149352000D03*
X131572000Y-138684000D03*
X143002000Y-98298000D03*
X115062000Y-86868000D03*
X94996000Y-65532000D03*
X120142000Y-92202000D03*
X140462000Y-92964000D03*
X155448000Y-72898000D03*
X123444000Y-40640000D03*
X84328000Y-71120000D03*
X101600000Y-101092000D03*
X81026000Y-99060000D03*
X79502000Y-56469409D03*
X136906000Y-96774000D03*
X90678000Y-109982000D03*
X108966000Y-127508000D03*
X128270000Y-135128000D03*
X147320000Y-134112000D03*
X151003000Y-114681000D03*
X150622000Y-78486000D03*
X152400000Y-82296000D03*
X153416000Y-95504000D03*
X80518000Y-48768000D03*
X50546000Y-50800000D03*
X87376000Y-112776000D03*
X63246000Y-112522000D03*
X151130000Y-98044000D03*
X80518000Y-52070000D03*
X154345705Y-121325705D03*
X119888000Y-134366000D03*
X115062000Y-134366000D03*
X135128000Y-94996000D03*
X96520000Y-108204000D03*
X133350000Y-94996000D03*
X131318000Y-79248000D03*
X80264000Y-91440000D03*
X104394000Y-84328000D03*
X65019114Y-118110000D03*
X101854000Y-82042000D03*
D19*
X165862000Y-33106295D02*
X157901705Y-33106295D01*
X157901705Y-33106295D02*
X157815410Y-33020000D01*
X155448000Y-33020000D02*
X152654000Y-30226000D01*
X157815410Y-33020000D02*
X155448000Y-33020000D01*
X165862000Y-33106295D02*
X163489705Y-33106295D01*
X30480000Y-106172000D02*
X30480000Y-109220000D01*
X34290000Y-88324081D02*
X39370000Y-93404081D01*
X34290000Y-87122000D02*
X34290000Y-88324081D01*
X39370000Y-93404081D02*
X39370000Y-100076000D01*
X39370000Y-100076000D02*
X35306000Y-104140000D01*
X32512000Y-104140000D02*
X30480000Y-106172000D01*
X35306000Y-104140000D02*
X32512000Y-104140000D01*
X33440001Y-86272001D02*
X32678001Y-86272001D01*
X34290000Y-87122000D02*
X33440001Y-86272001D01*
X32678001Y-82891999D02*
X40386000Y-75184000D01*
X32678001Y-86272001D02*
X32678001Y-82891999D01*
X40386000Y-75184000D02*
X40386000Y-69342000D01*
X40386000Y-69342000D02*
X43688000Y-66040000D01*
X43688000Y-66040000D02*
X43688000Y-65024000D01*
X45643477Y-63068523D02*
X48006000Y-63068523D01*
X43688000Y-65024000D02*
X45643477Y-63068523D01*
X144780000Y-22352000D02*
X141478000Y-19050000D01*
X127000000Y-19050000D02*
X141478000Y-19050000D01*
X126873000Y-19177000D02*
X127000000Y-19050000D01*
X112903000Y-19177000D02*
X126873000Y-19177000D01*
D20*
X112903000Y-19177000D02*
X112776000Y-19304000D01*
D19*
X111506000Y-20574000D02*
X111506000Y-22380000D01*
X112776000Y-19304000D02*
X111506000Y-20574000D01*
X33948001Y-112015704D02*
X32513704Y-112015704D01*
X34798000Y-111165705D02*
X33948001Y-112015704D01*
X32513704Y-112015704D02*
X31750000Y-111252000D01*
X31750000Y-110490000D02*
X30480000Y-109220000D01*
X31750000Y-111252000D02*
X31750000Y-110490000D01*
X155534295Y-33106295D02*
X165862000Y-33106295D01*
X146304000Y-27940000D02*
X150368000Y-27940000D01*
X144780000Y-22352000D02*
X144780000Y-26416000D01*
X150368000Y-27940000D02*
X155534295Y-33106295D01*
X144780000Y-26416000D02*
X146304000Y-27940000D01*
X164338000Y-164251705D02*
X158155705Y-164251705D01*
X34798000Y-112367786D02*
X37592000Y-115161786D01*
X34798000Y-111165705D02*
X34798000Y-112367786D01*
X54864000Y-137414000D02*
X53263477Y-139014523D01*
X57150000Y-137414000D02*
X54864000Y-137414000D01*
X69850000Y-124714000D02*
X57150000Y-137414000D01*
X53263477Y-139014523D02*
X51054000Y-139014523D01*
X99060000Y-124714000D02*
X69850000Y-124714000D01*
X164338000Y-164251705D02*
X137246295Y-164251705D01*
X165608000Y-143256000D02*
X165608000Y-146812000D01*
X165608000Y-146812000D02*
X163576000Y-148844000D01*
X132401919Y-175446081D02*
X120142000Y-175446081D01*
X119126000Y-174430081D02*
X119126000Y-173228000D01*
X134112000Y-173736000D02*
X132401919Y-175446081D01*
X120142000Y-175446081D02*
X119126000Y-174430081D01*
X133350000Y-164084000D02*
X133350000Y-172974000D01*
X133350000Y-172974000D02*
X134112000Y-173736000D01*
X137078590Y-164084000D02*
X137246295Y-164251705D01*
X133350000Y-164084000D02*
X137078590Y-164084000D01*
X39437919Y-114046000D02*
X38322133Y-115161786D01*
X38322133Y-115161786D02*
X37592000Y-115161786D01*
X40640000Y-114046000D02*
X39437919Y-114046000D01*
X102108000Y-127762000D02*
X102108000Y-125730000D01*
X102108000Y-127762000D02*
X99060000Y-124714000D01*
X115316000Y-140970000D02*
X102108000Y-127762000D01*
X114554000Y-113284000D02*
X123952000Y-113284000D01*
X102108000Y-125730000D02*
X114554000Y-113284000D01*
X46410000Y-101854000D02*
X43688000Y-104576000D01*
X48260000Y-101854000D02*
X46410000Y-101854000D01*
X43688000Y-104576000D02*
X43688000Y-105918000D01*
X43688000Y-105918000D02*
X40640000Y-108966000D01*
X36997705Y-108966000D02*
X34798000Y-111165705D01*
X40640000Y-108966000D02*
X36997705Y-108966000D01*
X163576000Y-148844000D02*
X160020000Y-148844000D01*
X153035000Y-155829000D02*
X153035000Y-159131000D01*
X160020000Y-148844000D02*
X153035000Y-155829000D01*
X158155705Y-164251705D02*
X153035000Y-159131000D01*
X153416000Y-59436000D02*
X159258000Y-65278000D01*
X173232887Y-65278000D02*
X180086000Y-58424887D01*
X159258000Y-65278000D02*
X173232887Y-65278000D01*
X182630887Y-58424887D02*
X185446001Y-61240001D01*
X180086000Y-58424887D02*
X182630887Y-58424887D01*
X185446001Y-61240001D02*
X185446001Y-63272001D01*
X185446001Y-63272001D02*
X188468000Y-66294000D01*
X150368000Y-105410000D02*
X133350000Y-122428000D01*
X116586000Y-165354000D02*
X116586000Y-173228000D01*
X112613182Y-60868818D02*
X117348000Y-56134000D01*
X117348000Y-56134000D02*
X117348000Y-55372000D01*
X124841000Y-157099000D02*
X116586000Y-165354000D01*
X133350000Y-148590000D02*
X124841000Y-157099000D01*
X124841000Y-157099000D02*
X124841000Y-156591000D01*
X80331919Y-149284081D02*
X77724000Y-151892000D01*
X48581919Y-136814818D02*
X49784000Y-136814818D01*
X47498000Y-137898737D02*
X48581919Y-136814818D01*
X47498000Y-138684000D02*
X47498000Y-137898737D01*
X76521919Y-151892000D02*
X75251919Y-153162000D01*
X56134000Y-152400000D02*
X55118000Y-151384000D01*
X55118000Y-151384000D02*
X55118000Y-149352000D01*
X49022000Y-141478000D02*
X49022000Y-140208000D01*
X77724000Y-151892000D02*
X76521919Y-151892000D01*
X55118000Y-149352000D02*
X50800000Y-145034000D01*
X50800000Y-145034000D02*
X50800000Y-143256000D01*
X50800000Y-143256000D02*
X49022000Y-141478000D01*
X49022000Y-140208000D02*
X47498000Y-138684000D01*
X56134000Y-152400000D02*
X58674000Y-152400000D01*
X58674000Y-152400000D02*
X59690000Y-151384000D01*
X59690000Y-151384000D02*
X66294000Y-151384000D01*
X68072000Y-153162000D02*
X73914000Y-153162000D01*
X66294000Y-151384000D02*
X68072000Y-153162000D01*
X75251919Y-153162000D02*
X73914000Y-153162000D01*
X73914000Y-153162000D02*
X73152000Y-153162000D01*
X121412000Y-127508000D02*
X122428000Y-128524000D01*
X120904000Y-127508000D02*
X121412000Y-127508000D01*
X120904000Y-121920000D02*
X120904000Y-127508000D01*
X133350000Y-128524000D02*
X133350000Y-148590000D01*
X133350000Y-122428000D02*
X133350000Y-128524000D01*
X122428000Y-128524000D02*
X133350000Y-128524000D01*
X123952000Y-118364000D02*
X123952000Y-119566081D01*
X123952000Y-119566081D02*
X123376081Y-120142000D01*
X122682000Y-120142000D02*
X120904000Y-121920000D01*
X123376081Y-120142000D02*
X122682000Y-120142000D01*
X153416000Y-59436000D02*
X149352000Y-55372000D01*
X149352000Y-55372000D02*
X125984000Y-55372000D01*
X80101182Y-60868818D02*
X112613182Y-60868818D01*
X188468000Y-74930000D02*
X188468000Y-74168000D01*
X188468000Y-66294000D02*
X188468000Y-74930000D01*
X188468000Y-75438000D02*
X188468000Y-74930000D01*
X116586000Y-165354000D02*
X114554000Y-165354000D01*
X114554000Y-165354000D02*
X95758000Y-146558000D01*
X77724000Y-143256000D02*
X78058930Y-143256000D01*
X190246000Y-110236000D02*
X195580000Y-110236000D01*
X145796000Y-154686000D02*
X190246000Y-110236000D01*
X133350000Y-151384000D02*
X136652000Y-154686000D01*
X136652000Y-154686000D02*
X145796000Y-154686000D01*
X79077858Y-143256000D02*
X77724000Y-143256000D01*
X79416929Y-142916929D02*
X79077858Y-143256000D01*
X79416929Y-142406001D02*
X79416929Y-142916929D01*
X88987999Y-137326001D02*
X84496929Y-137326001D01*
X118294010Y-154362010D02*
X99568000Y-135636000D01*
X99568000Y-135636000D02*
X90678000Y-135636000D01*
X123698000Y-155194000D02*
X119634000Y-155194000D01*
X90678000Y-135636000D02*
X88987999Y-137326001D01*
X119634000Y-155194000D02*
X118872000Y-154432000D01*
X84496929Y-137326001D02*
X79416929Y-142406001D01*
X118872000Y-154432000D02*
X118478020Y-154432000D01*
X118478020Y-154432000D02*
X118294010Y-154616010D01*
X130048000Y-148844000D02*
X123698000Y-155194000D01*
X118294010Y-154616010D02*
X118294010Y-154362010D01*
X78926081Y-140716000D02*
X87308081Y-132334000D01*
X77724000Y-140716000D02*
X78926081Y-140716000D01*
X87308081Y-132334000D02*
X99822000Y-132334000D01*
X99822000Y-132334000D02*
X120396000Y-152908000D01*
X120396000Y-152908000D02*
X120650000Y-153162000D01*
X120650000Y-153162000D02*
X121666000Y-153162000D01*
X121666000Y-153162000D02*
X128016000Y-146812000D01*
X128016000Y-146812000D02*
X131064000Y-146812000D01*
X199303705Y-108036295D02*
X196850000Y-108036295D01*
X201168000Y-106172000D02*
X199303705Y-108036295D01*
X152908000Y-113030000D02*
X152908000Y-117348000D01*
X140462000Y-121158000D02*
X149860000Y-111760000D01*
X140462000Y-146812000D02*
X140462000Y-121158000D01*
X177546000Y-102027070D02*
X177546000Y-101854000D01*
X135890000Y-148844000D02*
X138430000Y-148844000D01*
X151638000Y-111760000D02*
X152908000Y-113030000D01*
X152908000Y-117348000D02*
X151130000Y-119126000D01*
X138430000Y-148844000D02*
X140462000Y-146812000D01*
X201168000Y-101854000D02*
X201168000Y-106172000D01*
X151130000Y-119126000D02*
X151130000Y-124206000D01*
X152908000Y-125984000D02*
X156210000Y-125984000D01*
X156210000Y-125984000D02*
X157734000Y-124460000D01*
X157734000Y-124460000D02*
X157734000Y-121839070D01*
X149860000Y-111760000D02*
X151638000Y-111760000D01*
X151130000Y-124206000D02*
X152908000Y-125984000D01*
X177546000Y-101854000D02*
X201168000Y-101854000D01*
X157734000Y-121839070D02*
X177546000Y-102027070D01*
X77724000Y-136326000D02*
X83748000Y-130302000D01*
X77724000Y-138176000D02*
X77724000Y-136326000D01*
X83748000Y-130302000D02*
X101092000Y-130302000D01*
X101092000Y-130302000D02*
X109728000Y-138938000D01*
X109728000Y-138938000D02*
X112960009Y-142170009D01*
X112960009Y-142170009D02*
X116332000Y-145542000D01*
X116332000Y-145542000D02*
X121920000Y-145542000D01*
X121920000Y-145542000D02*
X131064000Y-136398000D01*
X149352000Y-136398000D02*
X161290000Y-136398000D01*
X191851409Y-105836591D02*
X198120000Y-105836591D01*
X161290000Y-136398000D02*
X191851409Y-105836591D01*
X47244000Y-84328000D02*
X47244000Y-79248000D01*
X47244000Y-79248000D02*
X66040000Y-60452000D01*
X66040000Y-60452000D02*
X66040000Y-32004000D01*
X66040000Y-32004000D02*
X69342000Y-28702000D01*
X69342000Y-26153998D02*
X70358000Y-25137998D01*
X69342000Y-28702000D02*
X69342000Y-26153998D01*
X70358000Y-25137998D02*
X70358000Y-21844000D01*
X70358000Y-21844000D02*
X71374000Y-20828000D01*
X78994000Y-22026000D02*
X78994000Y-23876000D01*
X77796000Y-20828000D02*
X78994000Y-22026000D01*
X71374000Y-20828000D02*
X77796000Y-20828000D01*
X90424000Y-118618000D02*
X97720010Y-111321990D01*
X97720010Y-111321990D02*
X99314000Y-109728000D01*
X99314000Y-109728000D02*
X99314000Y-109127860D01*
X99314000Y-109127860D02*
X99314000Y-104902000D01*
X99314000Y-104902000D02*
X96520000Y-102108000D01*
X96520000Y-102108000D02*
X85852000Y-102108000D01*
X85852000Y-102108000D02*
X79756000Y-102108000D01*
X79756000Y-102108000D02*
X79502000Y-101854000D01*
X79502000Y-98886930D02*
X87456930Y-90932000D01*
X79502000Y-101854000D02*
X79502000Y-98886930D01*
X87456930Y-90932000D02*
X89916000Y-90932000D01*
X97681999Y-80626001D02*
X101491999Y-80626001D01*
X97282000Y-81026000D02*
X97681999Y-80626001D01*
X101491999Y-80626001D02*
X108204000Y-73914000D01*
X89542000Y-156512000D02*
X89542000Y-156584000D01*
X89542000Y-156584000D02*
X87042000Y-159084000D01*
X95162001Y-137326001D02*
X94321999Y-137326001D01*
X96012000Y-138176000D02*
X95162001Y-137326001D01*
X94321999Y-137326001D02*
X92202000Y-139446000D01*
X92202000Y-153924000D02*
X89542000Y-156584000D01*
X92202000Y-139446000D02*
X92202000Y-153924000D01*
X93654000Y-153924000D02*
X92202000Y-153924000D01*
X94162000Y-154432000D02*
X93654000Y-153924000D01*
X96012000Y-154432000D02*
X94162000Y-154432000D01*
X87042000Y-159084000D02*
X87042000Y-159338000D01*
X82978000Y-159084000D02*
X87042000Y-159084000D01*
X72898000Y-173482000D02*
X72898000Y-169164000D01*
X72898000Y-169164000D02*
X82978000Y-159084000D01*
X71695919Y-173482000D02*
X68072000Y-169858081D01*
X72898000Y-173482000D02*
X71695919Y-173482000D01*
X68072000Y-169858081D02*
X68072000Y-167386000D01*
X68072000Y-167386000D02*
X65024000Y-164338000D01*
X65024000Y-162192936D02*
X66060000Y-161156936D01*
X65024000Y-164338000D02*
X65024000Y-162192936D01*
X81788000Y-91012930D02*
X81534000Y-90758930D01*
X81788000Y-91012930D02*
X81788000Y-90932000D01*
X81015061Y-90239991D02*
X75368009Y-90239991D01*
X81788000Y-91012930D02*
X81015061Y-90239991D01*
X89045999Y-68217999D02*
X96120001Y-68217999D01*
X88646000Y-67818000D02*
X89045999Y-68217999D01*
X96120001Y-68217999D02*
X99822000Y-64516000D01*
X99822000Y-64516000D02*
X99822000Y-62738000D01*
X78566930Y-104982930D02*
X89073070Y-104982930D01*
X79825990Y-94418010D02*
X79571990Y-94418010D01*
X81788000Y-91012930D02*
X81788000Y-92456000D01*
X77724000Y-104140000D02*
X78566930Y-104982930D01*
X89073070Y-104982930D02*
X93472000Y-104982930D01*
X81788000Y-92456000D02*
X79825990Y-94418010D01*
X79571990Y-94418010D02*
X77724000Y-96266000D01*
X77724000Y-96266000D02*
X77724000Y-104140000D01*
X146050000Y-102108000D02*
X145034000Y-102108000D01*
X145034000Y-102108000D02*
X139446000Y-107696000D01*
X139446000Y-107696000D02*
X134112000Y-107696000D01*
X131064000Y-110744000D02*
X126492000Y-110744000D01*
X134112000Y-107696000D02*
X131064000Y-110744000D01*
X126492000Y-105664000D02*
X137333070Y-105664000D01*
X137333070Y-105664000D02*
X137922000Y-105664000D01*
X137922000Y-105664000D02*
X146304000Y-97282000D01*
X141877999Y-62592001D02*
X141478000Y-62992000D01*
X150984001Y-62592001D02*
X141877999Y-62592001D01*
X151384000Y-62992000D02*
X150984001Y-62592001D01*
X147574000Y-30226000D02*
X147320000Y-30480000D01*
X146330051Y-30480000D02*
X120396000Y-56414051D01*
X147320000Y-30480000D02*
X146330051Y-30480000D01*
X120396000Y-56414051D02*
X120396000Y-57404000D01*
X120396000Y-57404000D02*
X120396000Y-58420000D01*
X120396000Y-58420000D02*
X105664000Y-73152000D01*
X105664000Y-73152000D02*
X98806000Y-73152000D01*
X98806000Y-73152000D02*
X87884000Y-84074000D01*
X87884000Y-93472000D02*
X89154000Y-93472000D01*
X89154000Y-93472000D02*
X93218000Y-97536000D01*
X100918930Y-97536000D02*
X101346000Y-97963070D01*
X93218000Y-97536000D02*
X100918930Y-97536000D01*
X101346000Y-97963070D02*
X101346000Y-98298000D01*
X101346000Y-98298000D02*
X111252000Y-108204000D01*
X111252000Y-108204000D02*
X120142000Y-108204000D01*
X122682000Y-105664000D02*
X123952000Y-105664000D01*
X120142000Y-108204000D02*
X122682000Y-105664000D01*
X131572000Y-138684000D02*
X120904000Y-149352000D01*
X143002000Y-98298000D02*
X140716000Y-100584000D01*
X140716000Y-100584000D02*
X126492000Y-100584000D01*
X43661949Y-88900000D02*
X42672000Y-88900000D01*
X122682000Y-100584000D02*
X123952000Y-100584000D01*
X120396000Y-102870000D02*
X122682000Y-100584000D01*
X120396000Y-105664000D02*
X120396000Y-102870000D01*
X95250000Y-88900000D02*
X102870000Y-96520000D01*
X102870000Y-96520000D02*
X102870000Y-97790000D01*
X119380000Y-106680000D02*
X120396000Y-105664000D01*
X42672000Y-88900000D02*
X95250000Y-88900000D01*
X102870000Y-97790000D02*
X111760000Y-106680000D01*
X111760000Y-106680000D02*
X119380000Y-106680000D01*
X122749919Y-98044000D02*
X122495919Y-97790000D01*
X123952000Y-98044000D02*
X122749919Y-98044000D01*
X122495919Y-97790000D02*
X122174000Y-97790000D01*
X122174000Y-97790000D02*
X121666000Y-97282000D01*
X121666000Y-93726000D02*
X120142000Y-92202000D01*
X121666000Y-97282000D02*
X121666000Y-93726000D01*
X80264000Y-69088000D02*
X83820000Y-65532000D01*
X79502000Y-74248930D02*
X80264000Y-73486930D01*
X114046000Y-85852000D02*
X84836000Y-85852000D01*
X83820000Y-65532000D02*
X94996000Y-65532000D01*
X115062000Y-86868000D02*
X114046000Y-85852000D01*
X84836000Y-85852000D02*
X83127990Y-84143990D01*
X83127990Y-84143990D02*
X83127990Y-83381990D01*
X80264000Y-73486930D02*
X80264000Y-69088000D01*
X83127990Y-83381990D02*
X79502000Y-79756000D01*
X79502000Y-79756000D02*
X79502000Y-74248930D01*
X152486296Y-92964000D02*
X140462000Y-92964000D01*
X155448000Y-72898000D02*
X163873148Y-81323148D01*
X182626000Y-62824296D02*
X164127148Y-81323148D01*
X163873148Y-81323148D02*
X164127148Y-81323148D01*
X164127148Y-81323148D02*
X152486296Y-92964000D01*
X118548010Y-48952010D02*
X116840000Y-47244000D01*
X118548010Y-57554920D02*
X118548010Y-48952010D01*
X104982930Y-71120000D02*
X118548010Y-57554920D01*
X84328000Y-71120000D02*
X104982930Y-71120000D01*
X107614591Y-56469409D02*
X116840000Y-47244000D01*
X116840000Y-47244000D02*
X123444000Y-40640000D01*
X81591685Y-99060000D02*
X81026000Y-99060000D01*
X101600000Y-100526315D02*
X100133685Y-99060000D01*
X100133685Y-99060000D02*
X81591685Y-99060000D01*
X101600000Y-101092000D02*
X101600000Y-100526315D01*
X79583409Y-56469409D02*
X107614591Y-56469409D01*
X183896000Y-65024000D02*
X153416000Y-95504000D01*
X153416000Y-95504000D02*
X136906000Y-95504000D01*
X120115999Y-23930001D02*
X120115999Y-24156001D01*
X121666000Y-22380000D02*
X120115999Y-23930001D01*
X120115999Y-24156001D02*
X95504000Y-48768000D01*
X50546000Y-51729705D02*
X53086000Y-54269705D01*
X50546000Y-51562000D02*
X50546000Y-51729705D01*
X90678000Y-109982000D02*
X61722000Y-109982000D01*
X61722000Y-109982000D02*
X48514000Y-123190000D01*
X46823999Y-129365706D02*
X45974000Y-130215705D01*
X48514000Y-123190000D02*
X48514000Y-127675705D01*
X108966000Y-127508000D02*
X117348000Y-127508000D01*
X117348000Y-127508000D02*
X124714000Y-134874000D01*
X124714000Y-134874000D02*
X128016000Y-134874000D01*
X128016000Y-134874000D02*
X128270000Y-135128000D01*
X147320000Y-134112000D02*
X147320000Y-118364000D01*
X147320000Y-118364000D02*
X151003000Y-114681000D01*
X150622000Y-79051685D02*
X152400000Y-80829685D01*
X150622000Y-78486000D02*
X150622000Y-79051685D01*
X152400000Y-80829685D02*
X152400000Y-82296000D01*
X48514000Y-127675705D02*
X46823999Y-129365706D01*
X131064000Y-92964000D02*
X126492000Y-92964000D01*
X136906000Y-95504000D02*
X136906000Y-96774000D01*
X131064000Y-92964000D02*
X131064000Y-93218000D01*
X131064000Y-93218000D02*
X131318000Y-93472000D01*
X131318000Y-93472000D02*
X131318000Y-97536000D01*
X131318000Y-97536000D02*
X131826000Y-98044000D01*
X135636000Y-98044000D02*
X136906000Y-96774000D01*
X131826000Y-98044000D02*
X135636000Y-98044000D01*
X81026000Y-48768000D02*
X80518000Y-48768000D01*
X95504000Y-48768000D02*
X81026000Y-48768000D01*
X50546000Y-51562000D02*
X50546000Y-50800000D01*
X107994091Y-176646091D02*
X106426000Y-175078000D01*
X168656000Y-162306000D02*
X168656000Y-163576000D01*
X165100000Y-168910000D02*
X163322000Y-170688000D01*
X170110010Y-160851990D02*
X168656000Y-162306000D01*
X163322000Y-172212000D02*
X162560000Y-172974000D01*
X106426000Y-175078000D02*
X106426000Y-173228000D01*
X170110010Y-151823896D02*
X170110010Y-160851990D01*
X162560000Y-173736000D02*
X159649909Y-176646091D01*
X176968953Y-144964953D02*
X170110010Y-151823896D01*
X176968953Y-143948953D02*
X176968953Y-144964953D01*
X176276000Y-143256000D02*
X176968953Y-143948953D01*
X168656000Y-163576000D02*
X167386000Y-164846000D01*
X167386000Y-164846000D02*
X167386000Y-165608000D01*
X167386000Y-165608000D02*
X165100000Y-167894000D01*
X165100000Y-167894000D02*
X165100000Y-168910000D01*
X163322000Y-170688000D02*
X163322000Y-172212000D01*
X162560000Y-172974000D02*
X162560000Y-173736000D01*
X159649909Y-176646091D02*
X107994091Y-176646091D01*
X154345705Y-98044000D02*
X185166000Y-67223705D01*
X154345705Y-121325705D02*
X154345705Y-98044000D01*
X55437495Y-52070000D02*
X54356000Y-52070000D01*
X124206000Y-24230000D02*
X96366000Y-52070000D01*
X124206000Y-22380000D02*
X124206000Y-24230000D01*
X87376000Y-112776000D02*
X63500000Y-112776000D01*
X63500000Y-112776000D02*
X63246000Y-112522000D01*
X184084505Y-67223705D02*
X185166000Y-67223705D01*
X154345705Y-98044000D02*
X151130000Y-98044000D01*
X96366000Y-52070000D02*
X80518000Y-52070000D01*
X155448000Y-122428000D02*
X154345705Y-121325705D01*
X41999999Y-87122000D02*
X108327999Y-87122000D01*
X40640000Y-104648000D02*
X40640000Y-88859998D01*
X40296001Y-88481999D02*
X41656000Y-87122000D01*
X108327999Y-87499999D02*
X110236000Y-89408000D01*
X110236000Y-89408000D02*
X118110000Y-89408000D01*
X119126000Y-90424000D02*
X123952000Y-90424000D01*
X118110000Y-89408000D02*
X119126000Y-90424000D01*
X40296001Y-88515999D02*
X40640000Y-88859998D01*
X40296001Y-88481999D02*
X40296001Y-88515999D01*
X119888000Y-134366000D02*
X115062000Y-134366000D01*
X135128000Y-94996000D02*
X135128000Y-86868000D01*
X135128000Y-86868000D02*
X133096000Y-84836000D01*
X133096000Y-84836000D02*
X133096000Y-78994000D01*
X131826000Y-77724000D02*
X126492000Y-77724000D01*
X133096000Y-78994000D02*
X131826000Y-77724000D01*
X45792000Y-108204000D02*
X47752000Y-108204000D01*
X40640000Y-111506000D02*
X42490000Y-111506000D01*
X46664000Y-108204000D02*
X47752000Y-108204000D01*
X42490000Y-111506000D02*
X45792000Y-108204000D01*
X47752000Y-108204000D02*
X96520000Y-108204000D01*
X131318000Y-84755070D02*
X131318000Y-80010000D01*
X131318000Y-80010000D02*
X131318000Y-85936000D01*
X131318000Y-85936000D02*
X131318000Y-79248000D01*
X133350000Y-87630000D02*
X133350000Y-94996000D01*
X131318000Y-85936000D02*
X131656000Y-85936000D01*
X131656000Y-85936000D02*
X133350000Y-87630000D01*
X48260000Y-104394000D02*
X67310000Y-104394000D01*
X67310000Y-104394000D02*
X80264000Y-91440000D01*
X104394000Y-84328000D02*
X109728000Y-84328000D01*
X121412000Y-72644000D02*
X123952000Y-72644000D01*
X109728000Y-84328000D02*
X121412000Y-72644000D01*
X48514000Y-134615114D02*
X65019114Y-118110000D01*
X101854000Y-82042000D02*
X109728000Y-82042000D01*
X121666000Y-70104000D02*
X123952000Y-70104000D01*
X109728000Y-82042000D02*
X121666000Y-70104000D01*
X35306000Y-107188000D02*
X33528000Y-108966000D01*
X36240591Y-107188000D02*
X35306000Y-107188000D01*
X130810000Y-160782000D02*
X130810000Y-164084000D01*
X164084000Y-160528000D02*
X165608000Y-162052000D01*
X162641409Y-160528000D02*
X164084000Y-160528000D01*
X166050505Y-35306000D02*
X165100000Y-36256505D01*
X167132000Y-35306000D02*
X166050505Y-35306000D01*
X164738904Y-36256505D02*
X164419409Y-36576000D01*
X165100000Y-36256505D02*
X164738904Y-36256505D01*
X147320000Y-22352000D02*
X147320000Y-25400000D01*
X36834886Y-84922295D02*
X38272591Y-86360000D01*
X35560000Y-84922295D02*
X36834886Y-84922295D01*
X62805160Y-164659160D02*
X62805160Y-157581649D01*
X75438000Y-173482000D02*
X75438000Y-175260000D01*
X65532000Y-167386000D02*
X62805160Y-164659160D01*
X75438000Y-175260000D02*
X74676000Y-176022000D01*
X62805160Y-157581649D02*
X63560000Y-156826809D01*
X72136000Y-176022000D02*
X65532000Y-169418000D01*
X65532000Y-169418000D02*
X65532000Y-167386000D01*
X74676000Y-176022000D02*
X72136000Y-176022000D01*
M02*
